<?xml version="1.0" encoding="UTF-8"?>
<svg width="48" height="48" version="1.0" xmlns="http://www.w3.org/2000/svg" xmlns:cc="http://creativecommons.org/ns#" xmlns:dc="http://purl.org/dc/elements/1.1/" xmlns:rdf="http://www.w3.org/1999/02/22-rdf-syntax-ns#" xmlns:xlink="http://www.w3.org/1999/xlink">
 <defs>
  <linearGradient id="linearGradient4902">
   <stop style="stop-color:#eeeeec" offset="0"/>
   <stop style="stop-color:#eeeeec;stop-opacity:0" offset="1"/>
  </linearGradient>
  <linearGradient id="linearGradient3505" x1="3" x2="4" y1="17.724" y2="17.724" gradientTransform="matrix(.65748 0 0 .85191 8.3874 -3.1582)" gradientUnits="userSpaceOnUse" xlink:href="#linearGradient4902"/>
  <linearGradient id="linearGradient4452" x1="8.159" x2="26.293" y1="33.293" y2="33.055" gradientTransform="translate(0 -1.9968)" gradientUnits="userSpaceOnUse">
   <stop style="stop-color:#6996d0" offset="0"/>
   <stop style="stop-color:#3465a4" offset="1"/>
  </linearGradient>
  <linearGradient id="linearGradient4466" x1="28.651" x2=".38945" y1="35.368" y2="35.289" gradientTransform="translate(0 -1.9968)" gradientUnits="userSpaceOnUse">
   <stop style="stop-color:#204a87" offset="0"/>
   <stop style="stop-color:#204a87;stop-opacity:0" offset="1"/>
  </linearGradient>
  <filter id="filter4504" x="-.041795" y="-.6711" width="1.0836" height="2.3422">
   <feGaussianBlur stdDeviation="0.77455975"/>
  </filter>
  <linearGradient id="linearGradient4467" x1="-10.598" x2="26.735" y1="21.876" y2="28.762" gradientUnits="userSpaceOnUse">
   <stop style="stop-color:#7a7d77" offset="0"/>
   <stop style="stop-color:#3c3d3a" offset="1"/>
  </linearGradient>
 </defs>
 <metadata>
  <rdf:RDF>
   <cc:Work rdf:about="">
    <dc:format>image/svg+xml</dc:format>
    <dc:type rdf:resource="http://purl.org/dc/dcmitype/StillImage"/>
    <cc:license rdf:resource="http://creativecommons.org/licenses/GPL/2.0/"/>
    <dc:title/>
    <dc:date>June 2007</dc:date>
    <dc:creator>
     <cc:Agent>
      <dc:title>F.Bellaiche &lt;frederic.bellaiche@gmail.com&gt;</dc:title>
     </cc:Agent>
    </dc:creator>
    <dc:rights>
     <cc:Agent>
      <dc:title/>
     </cc:Agent>
    </dc:rights>
    <dc:publisher>
     <cc:Agent>
      <dc:title/>
     </cc:Agent>
    </dc:publisher>
    <dc:identifier/>
    <dc:source/>
    <dc:subject>
     <rdf:Bag/>
    </dc:subject>
   </cc:Work>
   <cc:License rdf:about="http://creativecommons.org/licenses/GPL/2.0/">
    <cc:permits rdf:resource="http://web.resource.org/cc/Reproduction"/>
    <cc:permits rdf:resource="http://web.resource.org/cc/Distribution"/>
    <cc:requires rdf:resource="http://web.resource.org/cc/Notice"/>
    <cc:permits rdf:resource="http://web.resource.org/cc/DerivativeWorks"/>
    <cc:requires rdf:resource="http://web.resource.org/cc/ShareAlike"/>
    <cc:requires rdf:resource="http://web.resource.org/cc/SourceCode"/>
   </cc:License>
  </rdf:RDF>
 </metadata>
 <g>
  <path transform="matrix(.98973 0 0 2.1661 .020317 -49.254)" d="m46.457 40.284a22.239 1.385 0 1 1-44.478 0 22.239 1.385 0 1 1 44.478 0z" style="fill-rule:evenodd;filter:url(#filter4504);opacity:.38934"/>
  <rect x="35.464" y="35.967" width="8.0213" height="2.611" style="fill-rule:evenodd;fill:#3465a4;stroke-linejoin:round;stroke-width:.92857px;stroke:#173663"/>
  <rect x="4.4643" y="35.928" width="8.0213" height="2.611" style="fill-rule:evenodd;fill:#3465a4;stroke-linejoin:round;stroke-width:.92857px;stroke:#173663"/>
  <g transform="matrix(1.0169 0 0 .98723 25.848 4.3609)">
   <path d="m10.46 3.9658v9.0483l-0.96043 3.0791v9.8979s-0.008263 1.4914 0.42679 1.4914c0.56218 0.005694 1.4601 0.011387 2.0223 0.017081 0.37605 0.02024 0.49629-0.64464 0.4806-1.5198l0.003726-9.9261-0.96043-3v-9.0483c-0.28916-0.62767-0.73802-0.6256-1.0126-0.039571z" style="fill-rule:evenodd;stroke-linejoin:round;stroke-width:1px;stroke:#000"/>
   <path d="m10.468 4.2169c-0.035695-0.58068 0.51939-0.88992 0.5493 0 0.006707 6.8328-0.055962 22.722-0.055962 22.722h-0.69921c-0.46929-0.2081-0.30293-0.4451-0.3164-1.2298-0.035429-2.0642 0-9.6256 0-9.6256l0.55025-2.177s-0.09316-5.5733-0.027981-9.69z" style="color:rgb(0, 0, 0);fill-rule:evenodd;fill:url(#linearGradient3505);opacity:.5"/>
  </g>
  <g transform="matrix(1.0169 0 0 .98723 -.15229 4.3609)">
   <path d="m10.46 3.9658v9.0483l-0.96043 3.0791v9.8979s-0.008263 1.4914 0.42679 1.4914c0.56218 0.005694 1.4601 0.011387 2.0223 0.017081 0.37605 0.02024 0.49629-0.64464 0.4806-1.5198l0.003726-9.9261-0.96043-3v-9.0483c-0.28916-0.62767-0.73802-0.6256-1.0126-0.039571z" style="fill-rule:evenodd;stroke-linejoin:round;stroke-width:1px;stroke:#000"/>
   <path d="m10.468 4.2169c-0.035695-0.58068 0.51939-0.88992 0.5493 0 0.006707 6.8328-0.055962 22.722-0.055962 22.722h-0.69921c-0.46929-0.2081-0.30293-0.4451-0.3164-1.2298-0.035429-2.0642 0-9.6256 0-9.6256l0.55025-2.177s-0.09316-5.5733-0.027981-9.69z" style="color:rgb(0, 0, 0);fill-rule:evenodd;fill:url(#linearGradient3505);opacity:.5"/>
  </g>
  <path transform="translate(-277.86 -33.079)" d="m29 31.5z" style="color:black;fill-rule:evenodd;fill:#d3d3d3;stroke-dashoffset:0pt;stroke:#bababa"/>
  <path d="m24.02 21.468c4.8321 0.057148 12.126 0.68 17.645 1.8878l3.7228 5.1523v7.0027c0 0.51593-0.43561 0.93127-0.97671 0.93127 0 0-10.178 1.1472-20.405 1.1192-10.227-0.027982-20.504-1.2312-20.504-1.2312-0.5411 0-0.97671-0.41535-0.97671-0.93127v-6.8907l3.8644-4.994c5.6233-1.3995 12.758-2.1032 17.63-2.0461z" style="color:rgb(0, 0, 0);fill:url(#linearGradient4467);stroke-dashoffset:0pt;stroke-linecap:round;stroke:#2e3436"/>
  <path d="m24.02 22.458c4.8321 0.057148 11.611 0.60086 17.091 1.8087l3.4458 4.6379-41.121 0.039571 3.5083-4.5587c5.6233-1.3995 12.204-1.9845 17.076-1.9274z" style="color:rgb(0, 0, 0);fill:none;opacity:.16803;stroke-dashoffset:0pt;stroke-linecap:round;stroke:#eeeeec"/>
  <path d="m24.076 24.556c1.5532 0.001572 8.5579 0.29217 11.985 0.50712 0.29896 0.018752 0.67966 1.4234 0.98301 1.444 4.1637 0.28319 7.0038 0.58719 7.4602 0.80703l0.99492 1.195v7.002c0 0.51588-0.43674 0.93118-0.97924 0.93118 0 0-10.204 1.1471-20.458 1.1191-10.254-0.02798-20.557-1.2311-20.557-1.2311-0.5425 0-0.97924-0.41531-0.97924-0.93118v-6.8901l1.018-1.2742c0.6276-0.14593 3.0342-0.38998 7.4136-0.66877 0.33094-0.021068 0.73759-1.5446 1.0606-1.5634 2.9886-0.1737 10.66-0.44825 12.058-0.44684z" style="color:rgb(0, 0, 0);fill:url(#linearGradient4452);stroke-dashoffset:0pt;stroke-linecap:round;stroke-width:1.0012;stroke:#204a87"/>
  <path d="m3.4688 29.503s10.234-0.98928 20.498-0.98928c10.264 0 20.559 0.98928 20.559 0.98928v6.0225s-10.255 0.96096-20.52 0.96096c-10.264 0-20.537-0.96096-20.537-0.96096v-6.0225z" style="color:rgb(0, 0, 0);fill-rule:evenodd;fill:url(#linearGradient4466);stroke-dashoffset:0pt;stroke-linecap:round;stroke-linejoin:round;stroke:#3b72ad"/>
  <path transform="translate(-329.95 -39.836)" d="m29 31.5z" style="color:rgb(0, 0, 0);fill-rule:evenodd;fill:#d3d3d3;stroke-dashoffset:0pt;stroke:#bababa"/>
  <path transform="translate(-340.64 -91.684)" d="m29 31.5z" style="color:rgb(0, 0, 0);fill-rule:evenodd;fill:#d3d3d3;stroke-dashoffset:0pt;stroke:#bababa"/>
  <path transform="translate(-395.17 -103.7)" d="m29 31.5z" style="color:rgb(0, 0, 0);fill-rule:evenodd;fill:#d3d3d3;stroke-dashoffset:0pt;stroke:#bababa"/>
  <path transform="translate(-284.32 25.921)" d="m29 31.5z" style="color:rgb(0, 0, 0);fill-rule:evenodd;fill:#d3d3d3;stroke-dashoffset:0pt;stroke:#bababa"/>
  <path d="m3.9993 31.56 39.937-0.11178" style="fill:none;opacity:.16393;stroke-width:.999;stroke:#000"/>
  <path d="m4 31.014h24.11v4.8994s-6.9643 0.17089-12.992-0.056642c-6.0276-0.22754-11.118-0.8535-11.118-0.8535v-3.9893z" style="fill-rule:evenodd;fill:#2e3436"/>
  <path d="m20.026 31.014h8.0838v4.8994s-2.3346 0.091748-4.6819 0.062072c-2.3474-0.029679-3.3624 0.017071-3.3624 0.017071l-0.039571-4.9786z" style="fill-rule:evenodd;fill:#555753;opacity:.63115"/>
  <rect x="6.3908" y="32.394" width="3.2185" height="1.2185" style="fill-rule:evenodd;fill:#fff;opacity:.14344;stroke-linejoin:round;stroke-width:.7815px;stroke:#fff"/>
  <rect x="14.141" y="33.145" width=".71704" height=".71704" style="fill-rule:evenodd;fill:#8ae234;opacity:.53688;stroke-linejoin:round;stroke-width:.28296px;stroke:#73d216"/>
  <rect x="16.141" y="33.145" width=".71704" height=".71704" style="fill-rule:evenodd;fill:#8ae234;opacity:.53688;stroke-linejoin:round;stroke-width:.28296px;stroke:#73d216"/>
  <rect x="18.141" y="33.145" width=".71704" height=".71704" style="fill-rule:evenodd;fill:#8ae234;opacity:.53688;stroke-linejoin:round;stroke-width:.28296px;stroke:#73d216"/>
  <path transform="scale(1.0002 .99985)" d="m21.28 33.196h0.15712l0.20488-0.85801 0.19563 0.85801h0.15712l0.3127-1.1137h-0.12786l-0.24647 0.86725-0.19871-0.86725h-0.15096l-0.2095 0.87958-0.22798-0.87958h-0.1525l0.28652 1.1137m1.1776 0h0.14788v-0.81642h-0.14788v0.81642m0-0.9643h0.14788v-0.14942h-0.14788v0.14942m0.44528 0.9643h0.14788v-0.53915c0.062643-0.11091 0.1412-0.16636 0.23568-0.16636 0.018484 1e-6 0.041077 0.004109 0.067778 0.012324v-0.13864c-0.008216-0.001026-0.016432-0.001539-0.024647-0.00154-0.007189-0.001026-0.014891-0.00154-0.023106-0.00154-0.11194 0-0.19717 0.056996-0.25571 0.17099v-0.1525h-0.14788v0.81642m1.228-0.026187v-0.11707c-0.090371 0.032862-0.16636 0.049293-0.22798 0.049293-0.16842 0-0.26341-0.097046-0.28498-0.29114h0.51604v-0.046213c0.00308-0.12529-0.02362-0.2249-0.080101-0.29884-0.053402-0.069832-0.12991-0.10475-0.22952-0.10475-0.11194 0-0.20077 0.043132-0.26649 0.12939-0.06059 0.08113-0.090885 0.17869-0.090885 0.29268 0 0.12426 0.036457 0.22696 0.10937 0.30808 0.075993 0.082156 0.17561 0.12323 0.29884 0.12323 0.068805 0 0.15404-0.014891 0.25571-0.044672m-0.50526-0.46983c0.012323-0.15199 0.07548-0.22798 0.18947-0.22798 0.11399 0 0.17099 0.075994 0.17099 0.22798h-0.36046m0.76349 0.49601h0.14788v-1.1877h-0.14788v1.1877m1.0445-0.026187v-0.11707c-0.090371 0.032862-0.16636 0.049293-0.22798 0.049293-0.16842 0-0.26341-0.097046-0.28498-0.29114h0.51604v-0.046213c0.00308-0.12529-0.02362-0.2249-0.080102-0.29884-0.053401-0.069832-0.12991-0.10475-0.22952-0.10475-0.11194 0-0.20077 0.043132-0.26649 0.12939-0.06059 0.08113-0.090885 0.17869-0.090885 0.29268 0 0.12426 0.036457 0.22696 0.10937 0.30808 0.075993 0.082156 0.17561 0.12323 0.29884 0.12323 0.068805 0 0.15404-0.014891 0.25571-0.044672m-0.50526-0.46983c0.012323-0.15199 0.07548-0.22798 0.18947-0.22798 0.11399 0 0.17099 0.075994 0.17099 0.22798h-0.36046m0.73422 0.46675c0.094479 0.031835 0.17663 0.047753 0.24647 0.047753 0.080101 0 0.14891-0.020026 0.20642-0.060077 0.063669-0.046212 0.095505-0.10783 0.095505-0.18485 0-0.063671-0.022593-0.11707-0.067778-0.1602-0.030809-0.029781-0.082156-0.060075-0.15404-0.090884l-0.070859-0.029268c-0.072913-0.030808-0.10937-0.068291-0.10937-0.11245 0-0.069832 0.047752-0.10475 0.14326-0.10475 0.048265 0 0.11399 0.012324 0.19717 0.036969v-0.12323l-0.030809-0.006161c-0.064698-0.012323-0.12118-0.018485-0.16944-0.018485-0.082156 0-0.14737 0.017458-0.19563 0.052374-0.057509 0.041078-0.086263 0.10013-0.086263 0.17715 0 0.097561 0.06367 0.17407 0.19101 0.22952l0.086263 0.03697c0.079075 0.03389 0.11861 0.075481 0.11861 0.12477 0 0.037997-0.015918 0.068292-0.047752 0.090884-0.028755 0.020539-0.062131 0.030809-0.10013 0.030809-0.071887 0-0.1561-0.024133-0.25263-0.0724v0.13556m0.78525 0c0.094479 0.031835 0.17663 0.047753 0.24647 0.047753 0.080101 0 0.14891-0.020026 0.20642-0.060077 0.06367-0.046212 0.095505-0.10783 0.095506-0.18485-1e-6 -0.063671-0.022593-0.11707-0.067778-0.1602-0.030809-0.029781-0.082156-0.060075-0.15404-0.090884l-0.070859-0.029268c-0.072913-0.030808-0.10937-0.068291-0.10937-0.11245-1e-6 -0.069832 0.047752-0.10475 0.14326-0.10475 0.048266 0 0.11399 0.012324 0.19717 0.036969v-0.12323l-0.030808-0.006161c-0.064698-0.012323-0.12118-0.018485-0.16945-0.018485-0.082155 0-0.14737 0.017458-0.19563 0.052374-0.057509 0.041078-0.086264 0.10013-0.086264 0.17715 0 0.097561 0.063671 0.17407 0.19101 0.22952l0.086263 0.03697c0.079074 0.03389 0.11861 0.075481 0.11861 0.12477 0 0.037997-0.015918 0.068292-0.047753 0.090884-0.028755 0.020539-0.06213 0.030809-0.10013 0.030809-0.071886 0-0.1561-0.024133-0.25263-0.0724v0.13556" style="fill:#eeeeec;opacity:.43033"/>
  <path transform="scale(1.0002 .99985)" d="m21.768 35.122h0.15712v-0.47137h0.14788l0.31578 0.47137h0.19409l-0.37124-0.52066c0.14993-0.06367 0.2249-0.16893 0.2249-0.31578-1e-6 -0.18485-0.1104-0.27727-0.33119-0.27728h-0.33735v1.1137m0.15712-0.58844v-0.40667h0.098587c0.16636 1e-6 0.24955 0.05751 0.24955 0.17253 0 0.1561-0.0991 0.23414-0.2973 0.23414h-0.050834m1.1427 0.60692c0.12631 0 0.2249-0.04005 0.29576-0.12015 0.065724-0.074967 0.098586-0.17766 0.098587-0.30808-1e-6 -0.12734-0.032863-0.22849-0.098587-0.30346-0.068806-0.081128-0.16585-0.12169-0.29114-0.12169-0.12529 1e-6 -0.22233 0.040565-0.29114 0.12169-0.065724 0.078048-0.098586 0.17972-0.098586 0.305 0 0.12426 0.032348 0.22542 0.097046 0.30346 0.069832 0.082156 0.16585 0.12323 0.28806 0.12323m0.00154-0.11091c-0.081129 1e-6 -0.14172-0.033889-0.18177-0.10167-0.030809-0.055455-0.046213-0.12683-0.046212-0.21412-1e-6 -0.21052 0.07702-0.31578 0.23106-0.31578 0.15507 1e-6 0.2326 0.10475 0.2326 0.31424-1e-6 0.21155-0.078562 0.31733-0.23568 0.31732m1.1342 0.092425h0.14788v-0.81642h-0.14788v0.52836c-0.079075 0.11912-0.16431 0.17869-0.25571 0.17869-0.048267 0-0.080615-0.017458-0.097046-0.052374-0.012324-0.024647-0.018485-0.063671-0.018485-0.11707v-0.5376h-0.14942v0.5869c-1e-6 0.074968 0.020025 0.13453 0.060076 0.17869 0.043131 0.046212 0.10115 0.069318 0.17407 0.069318 0.11296 0 0.20847-0.057508 0.28652-0.17253v0.15404m0.8104 0v-0.10167c-0.029782 0.006162-0.053915 0.009243-0.0724 0.009242-0.092425 1e-6 -0.13864-0.0534-0.13864-0.1602v-0.45288h0.21412v-0.11091h-0.21412v-0.16328l-0.14788 0.015404v0.14788h-0.10167v0.11091h0.10167v0.48061c0 0.074967 0.021052 0.13453 0.063157 0.17869 0.041078 0.043132 0.099613 0.064697 0.17561 0.064697 0.033889 0 0.07394-0.006161 0.12015-0.018485m0.80879-0.026187v-0.11707c-0.090372 0.032862-0.16637 0.049293-0.22798 0.049293-0.16842 0-0.26341-0.097046-0.28498-0.29114h0.51604v-0.046213c0.00308-0.12529-0.023621-0.2249-0.080102-0.29884-0.053402-0.069832-0.12991-0.10475-0.22952-0.10475-0.11194 1e-6 -0.20077 0.043133-0.26649 0.1294-0.060589 0.081129-0.090884 0.17869-0.090884 0.29268 0 0.12426 0.036456 0.22696 0.10937 0.30808 0.075994 0.082156 0.17561 0.12323 0.29884 0.12323 0.068805 0 0.15404-0.01489 0.25571-0.044672m-0.50526-0.46983c0.012323-0.15199 0.07548-0.22798 0.18947-0.22798 0.11399 1e-6 0.17098 0.075995 0.17099 0.22798h-0.36046m0.76349 0.49601h0.14788v-0.53914c0.062643-0.11091 0.1412-0.16636 0.23568-0.16636 0.018485 1e-6 0.041077 0.004109 0.067779 0.012324v-0.13864c-0.008217-0.001026-0.016432-0.001539-0.024647-0.00154-0.007189-0.001026-0.014891-0.00154-0.023106-0.001541-0.11194 1e-6 -0.19717 0.056996-0.25571 0.17099v-0.1525h-0.14788v0.81642" style="fill:#eeeeec;opacity:.43033"/>
  <path d="m33.633 33.149h3.3669v1.509h-4.2799l0.91301-1.509z" style="fill-opacity:.96624;fill-rule:evenodd;fill:#73d216"/>
  <path transform="scale(.95269 1.0497)" d="m32.952 32.834h-1.4717v-0.32723c0.099266-0.10619 0.19103-0.20084 0.27529-0.28395 0.08426-0.084259 0.16044-0.16217 0.22854-0.23374 0.069255-0.072717 0.13043-0.1414 0.18353-0.20603 0.053094-0.065792 0.096956-0.13332 0.13158-0.20257 0.035781-0.070408 0.062906-0.14543 0.081375-0.22508 0.018467-0.079642 0.027701-0.17025 0.027702-0.27183-1e-6 -0.070408-0.009235-0.13158-0.027702-0.18353-0.018469-0.053093-0.043285-0.096955-0.074449-0.13158-0.030012-0.03578-0.065216-0.062328-0.10561-0.079644-0.0404-0.017312-0.083107-0.025969-0.12812-0.025971-0.071565 2e-6 -0.1287 0.007505-0.17141 0.022508-0.042708 0.015008-0.081953 0.037516-0.11773 0.067524l-0.074449 0.33589h-0.15063v-0.52807c0.09234-0.020774 0.18237-0.038088 0.2701-0.051942 0.088877-0.015003 0.18526-0.022505 0.28914-0.022508 0.25509 3e-6 0.45016 0.052521 0.58521 0.15756 0.1362 0.10504 0.2043 0.25452 0.2043 0.44843-1e-6 0.092342-0.010967 0.17602-0.032896 0.25105-0.021932 0.073874-0.054252 0.14371-0.096957 0.2095-0.041555 0.065794-0.093496 0.12986-0.15582 0.19218-0.062331 0.062331-0.13447 0.12812-0.21642 0.19738-0.080799 0.069256-0.17083 0.14428-0.2701 0.22508-0.099266 0.080799-0.20661 0.17256-0.32204 0.27529h1.1392v0.39129m0.5956 0.05021c-0.040399 0-0.077912-0.007503-0.11254-0.022508s-0.065215-0.035205-0.091763-0.060598c-0.025394-0.026548-0.045593-0.057136-0.060598-0.091764-0.015006-0.034627-0.022508-0.07214-0.022508-0.11254 0-0.039245 0.007502-0.076181 0.022508-0.11081 0.015005-0.035781 0.035204-0.066369 0.060598-0.091763 0.026548-0.026547 0.057135-0.047324 0.091763-0.06233 0.034628-0.015004 0.072141-0.022507 0.11254-0.022508 0.039244 1e-6 0.07618 0.007504 0.11081 0.022508 0.035782 0.015006 0.066369 0.035783 0.091764 0.06233 0.026547 0.025394 0.047323 0.055982 0.062329 0.091763 0.015005 0.034628 0.022508 0.071564 0.022508 0.11081 0 0.040399-0.007503 0.077912-0.022508 0.11254-0.015006 0.034628-0.035782 0.065216-0.062329 0.091764-0.025395 0.025393-0.055982 0.045593-0.091764 0.060598-0.034628 0.015005-0.071564 0.022508-0.11081 0.022508m1.9184-0.50903v0.45882h-0.46574v-0.45882h-0.96092v-0.28222l1.0458-1.5929h0.3809v1.5202h0.232v0.35493h-0.232m-0.46574-1.0423c-1e-6 -0.030009 5.76e-4 -0.061751 0.001731-0.095226 0.001153-0.033472 0.002307-0.066368 0.003463-0.098689 0.002307-0.033472 0.004039-0.064636 0.005194-0.093495 0.002307-0.030008 0.004616-0.056556 0.006925-0.079643l-0.69082 1.0544h0.67351v-0.68736" style="fill:#eeeeec"/>
  <path transform="scale(1.0129 .98722)" d="m34.707 33.31c-0.053871 0.017648-0.10983 0.032509-0.16788 0.044583-0.058051 0.012075-0.12051 0.018112-0.18739 0.018112-0.073841 0-0.14048-0.009985-0.19993-0.029954-0.05898-0.020434-0.10937-0.050388-0.15116-0.089863-0.041797-0.039938-0.073841-0.089165-0.096132-0.14768-0.022292-0.058514-0.033437-0.12608-0.033437-0.20271 0-0.16347 0.040867-0.28561 0.1226-0.36642 0.082199-0.08127 0.20248-0.12191 0.36084-0.12191 0.060372 1e-6 0.11773 0.003716 0.17206 0.011146 0.054799 0.007431 0.10681 0.017648 0.15604 0.030651v0.20062h-0.046673l-0.018808-0.11564c-0.032045-0.022755-0.07059-0.04017-0.11564-0.052246-0.044583-0.012538-0.091721-0.018807-0.14141-0.018808-0.054336 1e-6 -0.10287 0.007663-0.14559 0.022988-0.042262 0.014862-0.078021 0.039243-0.10728 0.073144-0.029258 0.033902-0.051782 0.078485-0.067571 0.13375-0.015326 0.0548-0.022988 0.12191-0.022988 0.20132 0 0.080343 0.009055 0.14745 0.027168 0.20132 0.018111 0.053407 0.042492 0.096132 0.073143 0.12818 0.031115 0.032044 0.066874 0.0548 0.10728 0.068268 0.040867 0.013467 0.083825 0.020201 0.12887 0.020201 0.022755 0 0.045278-0.001393 0.067571-0.004179 0.022755-0.003251 0.043885-0.007199 0.063391-0.011843 0.019969-0.004644 0.037616-0.009752 0.052942-0.015325 0.015325-0.005573 0.027399-0.010914 0.036224-0.016022v-0.26541l-0.11982-0.018112v-0.037617h0.34482v0.037617l-0.091256 0.018112v0.30372m0.17764 0.048763v-0.03692l0.11982-0.018809v-0.82339l-0.11982-0.018111v-0.036921h0.37408v0.036921l-0.11982 0.018111v0.36711h0.43956v-0.36711l-0.11982-0.018111v-0.036921h0.37338v0.036921l-0.11982 0.018111v0.82339l0.11982 0.018809v0.03692h-0.37338v-0.03692l0.11982-0.018809v-0.39358h-0.43956v0.39358l0.11982 0.018809v0.03692h-0.37408m1.0282 0v-0.031348l0.35945-0.56774h-0.15395c-0.013004 0-0.026007 6.97e-4 -0.03901 0.00209-0.01254 9.29e-4 -0.024614 0.002554-0.036224 0.004876-0.011146 0.001858-0.021131 0.004412-0.029954 0.007663-0.008824 0.002787-0.015558 0.006037-0.020202 0.009752l-0.021595 0.094042h-0.03274v-0.17415h0.48345v0.034134l-0.35945 0.56495h0.19157c0.012539 0 0.025774-6.96e-4 0.039707-0.00209 0.014396-0.001857 0.028096-0.004179 0.0411-0.006966 0.013467-0.002786 0.025774-0.006037 0.03692-0.009752 0.01161-0.00418 0.020898-0.008824 0.027864-0.013932l0.035527-0.13723h0.032741l-0.017415 0.2257h-0.53778" style="fill:#eeeeec"/>
  <path d="m34.407 34.095 0.16431-0.017018c0.004695 0.037166 0.018583 0.066703 0.041665 0.088612 0.023082 0.021517 0.049685 0.032275 0.079809 0.032275 0.034427 0 0.063573-0.013888 0.087437-0.041665 0.023864-0.028167 0.035796-0.070419 0.035797-0.12676-1e-6 -0.052814-0.011933-0.092327-0.035797-0.11854-0.023473-0.026603-0.054184-0.039904-0.092132-0.039904-0.047338 0-0.089785 0.02093-0.12734 0.06279l-0.1338-0.019365 0.084504-0.44775h0.43601v0.15434h-0.31102l-0.02582 0.14612c0.036774-0.018387 0.074331-0.027581 0.11267-0.027581 0.073158 0 0.13517 0.026603 0.18602 0.079809 0.050858 0.053206 0.076287 0.12226 0.076287 0.20715 0 0.070811-0.020539 0.13399-0.061617 0.18955-0.055944 0.075896-0.1336 0.11384-0.23297 0.11384-0.079417 0-0.14416-0.021322-0.19424-0.063965-0.050076-0.042642-0.080004-0.099956-0.089785-0.17194m0.98998 0.22124v-0.17312h-0.3521v-0.14436l0.37322-0.54634h0.13849v0.54575h0.1068v0.14495h-0.1068v0.17312h-0.15962m0-0.31806v-0.294l-0.19776 0.294h0.19776m0.3656 0.35914 0.18837 0.022886c0.003129 0.021908 0.010367 0.03697 0.021713 0.045186 0.015648 0.011737 0.040295 0.017605 0.07394 0.017605 0.043034 0 0.075309-0.006455 0.096827-0.019365 0.014474-0.008607 0.025428-0.022496 0.032862-0.041665 0.005085-0.013693 0.007628-0.038927 0.007629-0.075701v-0.090959c-0.049294 0.06729-0.1115 0.10094-0.18661 0.10094-0.083721 0-0.15003-0.035405-0.19894-0.10622-0.038339-0.055944-0.057509-0.12558-0.057509-0.20891 0-0.10446 0.025038-0.18426 0.075114-0.23943 0.050467-0.055162 0.11306-0.082743 0.18778-0.082743 0.07707 0 0.14064 0.033841 0.19072 0.10152v-0.087437h0.15434v0.55925c-1e-6 0.073549-0.006065 0.12852-0.018192 0.1649-0.012128 0.036384-0.029146 0.064943-0.051054 0.085677-0.021909 0.020735-0.05125 0.03697-0.088024 0.048707-0.036384 0.011737-0.082548 0.017605-0.13849 0.017605-0.10563 0-0.18055-0.018192-0.22476-0.054575-0.044208-0.035992-0.066312-0.081765-0.066312-0.13732 0-0.005477 1.96e-4 -0.012128 5.87e-4 -0.019952m0.14729-0.36559c0 0.066116 0.012714 0.11463 0.038144 0.14553 0.02582 0.030515 0.057509 0.045773 0.095066 0.045773 0.040295 0 0.074331-0.015649 0.10211-0.046947 0.027776-0.031688 0.041665-0.078439 0.041665-0.14025 0-0.06455-0.013302-0.11248-0.039904-0.14377-0.026604-0.031297-0.060248-0.046945-0.10094-0.046946-0.039513 1e-6 -0.07218 0.015454-0.098 0.04636-0.02543 0.030515-0.038144 0.077266-0.038144 0.14025"/>
  <path transform="translate(-284.68 3.6024)" d="m29 31.5z" style="color:rgb(0, 0, 0);fill-rule:evenodd;fill:#d3d3d3;stroke-dashoffset:0pt;stroke:#bababa"/>
  <path transform="translate(-336.78 -3.155)" d="m29 31.5z" style="color:rgb(0, 0, 0);fill-rule:evenodd;fill:#d3d3d3;stroke-dashoffset:0pt;stroke:#bababa"/>
  <path transform="translate(-347.46 -55.002)" d="m29 31.5z" style="color:rgb(0, 0, 0);fill-rule:evenodd;fill:#d3d3d3;stroke-dashoffset:0pt;stroke:#bababa"/>
  <path transform="translate(-402 -67.023)" d="m29 31.5z" style="color:rgb(0, 0, 0);fill-rule:evenodd;fill:#d3d3d3;stroke-dashoffset:0pt;stroke:#bababa"/>
  <path transform="translate(-291.14 62.602)" d="m29 31.5z" style="color:rgb(0, 0, 0);fill-rule:evenodd;fill:#d3d3d3;stroke-dashoffset:0pt;stroke:#bababa"/>
  <path d="m6 34s0.81148-0.27394 1.3042-0.77387c0.49272-0.49993 0.66669-1.2259 0.66669-1.2259s0.19175 0.74045 0.69903 1.2405c0.50728 0.5 1.3301 0.75954 1.3301 0.75954l-4-2.8e-4z" style="fill-rule:evenodd;fill:#eeeeec;opacity:.32377"/>
 </g>
</svg>
