<?xml version="1.0" encoding="UTF-8"?>
<svg width="64" height="64" version="1.0" xmlns="http://www.w3.org/2000/svg" xmlns:cc="http://creativecommons.org/ns#" xmlns:dc="http://purl.org/dc/elements/1.1/" xmlns:rdf="http://www.w3.org/1999/02/22-rdf-syntax-ns#" xmlns:xlink="http://www.w3.org/1999/xlink">
 <defs>
  <linearGradient id="linearGradient4902">
   <stop style="stop-color:#eeeeec" offset="0"/>
   <stop style="stop-color:#eeeeec;stop-opacity:0" offset="1"/>
  </linearGradient>
  <linearGradient id="linearGradient3505" x1="3" x2="4" y1="17.724" y2="17.724" gradientTransform="matrix(.65748 0 0 .85191 8.3874 -3.1582)" gradientUnits="userSpaceOnUse" xlink:href="#linearGradient4902"/>
  <filter id="filter4504-8" x="-.041795" y="-.6711" width="1.0836" height="2.3422">
   <feGaussianBlur stdDeviation="0.77455975"/>
  </filter>
  <linearGradient id="linearGradient4467-0" x1="-10.598" x2="26.735" y1="21.876" y2="28.762" gradientTransform="matrix(2 0 0 2 .084703 -4.0424)" gradientUnits="userSpaceOnUse">
   <stop style="stop-color:#7a7d77" offset="0"/>
   <stop style="stop-color:#3c3d3a" offset="1"/>
  </linearGradient>
  <linearGradient id="linearGradient4452-0" x1="8.159" x2="26.293" y1="33.293" y2="33.055" gradientTransform="matrix(2 0 0 2 .084703 -8.0359)" gradientUnits="userSpaceOnUse">
   <stop style="stop-color:#6996d0" offset="0"/>
   <stop style="stop-color:#3465a4" offset="1"/>
  </linearGradient>
  <linearGradient id="linearGradient4466-5" x1="28.651" x2=".38945" y1="35.368" y2="35.289" gradientTransform="matrix(2.0458 0 0 2.093 -1.0075 -10.85)" gradientUnits="userSpaceOnUse">
   <stop style="stop-color:#204a87" offset="0"/>
   <stop style="stop-color:#204a87;stop-opacity:0" offset="1"/>
  </linearGradient>
 </defs>
 <metadata>
  <rdf:RDF>
   <cc:Work rdf:about="">
    <dc:format>image/svg+xml</dc:format>
    <dc:type rdf:resource="http://purl.org/dc/dcmitype/StillImage"/>
    <cc:license rdf:resource="http://creativecommons.org/licenses/GPL/2.0/"/>
    <dc:title/>
    <dc:date>June 2007</dc:date>
    <dc:creator>
     <cc:Agent>
      <dc:title>F.Bellaiche &lt;frederic.bellaiche@gmail.com&gt;</dc:title>
     </cc:Agent>
    </dc:creator>
    <dc:rights>
     <cc:Agent>
      <dc:title/>
     </cc:Agent>
    </dc:rights>
    <dc:publisher>
     <cc:Agent>
      <dc:title/>
     </cc:Agent>
    </dc:publisher>
    <dc:identifier/>
    <dc:source/>
    <dc:subject>
     <rdf:Bag/>
    </dc:subject>
   </cc:Work>
   <cc:License rdf:about="http://creativecommons.org/licenses/GPL/2.0/">
    <cc:permits rdf:resource="http://web.resource.org/cc/Reproduction"/>
    <cc:permits rdf:resource="http://web.resource.org/cc/Distribution"/>
    <cc:requires rdf:resource="http://web.resource.org/cc/Notice"/>
    <cc:permits rdf:resource="http://web.resource.org/cc/DerivativeWorks"/>
    <cc:requires rdf:resource="http://web.resource.org/cc/ShareAlike"/>
    <cc:requires rdf:resource="http://web.resource.org/cc/SourceCode"/>
   </cc:License>
  </rdf:RDF>
 </metadata>
 <g transform="matrix(.67083 0 0 .67083 -.24348 -.59395)">
  <path transform="matrix(1.9795 0 0 4.3321 .12533 -102.55)" d="m46.457 40.284a22.239 1.385 0 1 1-44.478 0 22.239 1.385 0 1 1 44.478 0z" style="fill-rule:evenodd;filter:url(#filter4504-8);opacity:.38934"/>
  <rect x="71.013" y="67.893" width="16.043" height="5.222" style="fill-rule:evenodd;fill:#3465a4;stroke-linejoin:round;stroke:#173663"/>
  <rect x="9.0132" y="67.814" width="16.043" height="5.222" style="fill-rule:evenodd;fill:#3465a4;stroke-linejoin:round;stroke:#173663"/>
  <g transform="matrix(2.0338 0 0 1.9745 51.78 4.6794)">
   <path d="m10.46 3.9658v9.0483l-0.96043 3.0791v9.8979s-0.00826 1.4914 0.42679 1.4914c0.56218 0.0057 1.4601 0.01139 2.0223 0.01708 0.37605 0.02024 0.49629-0.64464 0.4806-1.5198l0.0037-9.9261-0.96043-3v-9.0483c-0.28916-0.62767-0.73802-0.6256-1.0126-0.039571z" style="fill-rule:evenodd;stroke-linejoin:round;stroke-width:.49902;stroke:#000"/>
   <path d="m10.468 4.2169c-0.0357-0.58068 0.51939-0.88992 0.5493 0 0.0067 6.8328-0.05596 22.722-0.05596 22.722h-0.69921c-0.46929-0.2081-0.30293-0.4451-0.3164-1.2298-0.035429-2.0642 0-9.6256 0-9.6256l0.55025-2.177s-0.09316-5.5733-0.02798-9.69z" style="fill-rule:evenodd;fill:url(#linearGradient3505);opacity:.5"/>
  </g>
  <g transform="matrix(2.0338 0 0 1.9745 -.21989 4.6794)">
   <path d="m10.46 3.9658v9.0483l-0.96043 3.0791v9.8979s-0.00826 1.4914 0.42679 1.4914c0.56218 0.0057 1.4601 0.01139 2.0223 0.01708 0.37605 0.02024 0.49629-0.64464 0.4806-1.5198l0.0037-9.9261-0.96043-3v-9.0483c-0.28916-0.62767-0.73802-0.6256-1.0126-0.039571z" style="fill-rule:evenodd;stroke-linejoin:round;stroke-width:.49902;stroke:#000"/>
   <path d="m10.468 4.2169c-0.0357-0.58068 0.51939-0.88992 0.5493 0 0.0067 6.8328-0.05596 22.722-0.05596 22.722h-0.69921c-0.46929-0.2081-0.30293-0.4451-0.3164-1.2298-0.035429-2.0642 0-9.6256 0-9.6256l0.55025-2.177s-0.09316-5.5733-0.02798-9.69z" style="fill-rule:evenodd;fill:url(#linearGradient3505);opacity:.5"/>
  </g>
  <path d="m48.124 38.895c9.6643 0.1143 24.252 1.36 35.29 3.7756l7.4455 10.305v14.005c0 1.0319-0.87123 1.8625-1.9534 1.8625 0 0-20.355 2.2945-40.81 2.2385-20.454-0.056-41.008-2.4623-41.008-2.4623-1.0822 0-1.9534-0.8307-1.9534-1.8625v-13.781l7.7288-9.988c11.247-2.7989 25.516-4.2065 35.26-4.0922z" style="fill:url(#linearGradient4467-0);stroke-linecap:round;stroke:#2e3436"/>
  <path d="m48.088 40.042c9.8036 0.11424 23.558 1.2011 34.675 3.6154l6.9909 9.2708-83.428 0.0791 7.1177-9.1126c11.409-2.7975 24.76-3.967 34.644-3.8527z" style="fill:none;opacity:.16803;stroke-linecap:round;stroke-width:1.0069;stroke:#eeeeec"/>
  <path d="m48.237 45.069c3.1064 0.0031 17.116 0.58433 23.97 1.0142 0.59793 0.0375 1.3593 2.8467 1.966 2.888 8.3275 0.56638 14.008 1.1744 14.92 1.6141l1.9898 2.3901v14.004c0 1.0318-0.87348 1.8624-1.9585 1.8624 0 0-20.408 2.2942-40.915 2.2383-20.507-0.056-41.114-2.4621-41.114-2.4621-1.085 0-1.9585-0.83062-1.9585-1.8624v-13.78l2.036-2.5484c1.2552-0.29186 6.0685-0.77996 14.827-1.3375 0.66187-0.04214 1.4752-3.0892 2.1213-3.1268 5.9771-0.34741 21.32-0.8965 24.116-0.89367z" style="fill:url(#linearGradient4452-0);stroke-linecap:round;stroke:#204a87"/>
  <path d="m6.0888 54.756s20.935-1.7452 41.934-1.7452c20.998 0 42.059 2.0706 42.059 2.0706v12.605s-20.183 1.9487-41.662 2.2717c-21.639 0.32543-42.331-2.5972-42.331-2.5972v-12.605z" style="fill-rule:evenodd;fill:url(#linearGradient4466-5);stroke-linecap:round;stroke-linejoin:round;stroke-width:1.0197;stroke:#3b72ad"/>
  <path d="m8.0851 58.681 81.452-0.22001" style="fill:none;opacity:.16393;stroke-width:2.0016;stroke:#000"/>
  <path d="m6.6601 57.59h49.645v11.758s-14.34 0.0825-26.751-0.46352c-12.411-0.54604-22.894-2.0482-22.894-2.0482v-9.2459z" style="fill-rule:evenodd;fill:#2e3436"/>
  <path d="m40.533 57.59h15.772v11.608s-4.555 0.21737-9.1346 0.14706c-4.5799-0.0703-6.5601 0.0404-6.5601 0.0404l-0.0772-11.795z" style="fill-rule:evenodd;fill:#555753;opacity:.63115"/>
  <rect x="12.464" y="61.293" width="6.2921" height="2.4504" style="fill-rule:evenodd;fill:#fff;opacity:.14344;stroke-linejoin:round;stroke-width:1.5496px;stroke:#fff"/>
  <rect x="27.893" y="62.801" width="1.4341" height="1.4341" style="fill-rule:evenodd;fill:#8ae234;opacity:.53689;stroke-linejoin:round;stroke-width:.56593px;stroke:#73d216"/>
  <rect x="31.972" y="62.801" width="1.4341" height="1.4341" style="fill-rule:evenodd;fill:#8ae234;opacity:.53689;stroke-linejoin:round;stroke-width:.56593px;stroke:#73d216"/>
  <rect x="35.972" y="62.801" width="1.4341" height="1.4341" style="fill-rule:evenodd;fill:#8ae234;opacity:.53689;stroke-linejoin:round;stroke-width:.56593px;stroke:#73d216"/>
  <path d="m42.651 62.814h0.31429l0.40981-1.7158 0.39133 1.7158h0.31429l0.6255-2.2271h-0.25575l-0.49301 1.7342-0.39749-1.7342h-0.30197l-0.41906 1.7589-0.45603-1.7589h-0.30505l0.57312 2.2271m2.3556 0h0.2958v-1.6326h-0.2958v1.6326m0-1.9283h0.2958v-0.2988h-0.2958v0.2988m0.89068 1.9283h0.29581v-1.0781c0.1253-0.22178 0.28245-0.33268 0.47144-0.33268 0.03697 2e-6 0.08217 0.0082 0.13558 0.02464v-0.27723c-0.01643-0.0021-0.03287-0.0031-0.0493-0.0031-0.01438-0.0021-0.02979-0.0031-0.04622-0.0031-0.22391 0-0.39441 0.11398-0.51149 0.34192v-0.30495h-0.29581v1.6326m2.4564-0.0524v-0.23411c-0.18077 0.0657-0.33278 0.0986-0.45603 0.0986-0.33689 0-0.5269-0.19406-0.57004-0.58219h1.0322v-0.0924c0.0062-0.25053-0.04725-0.44973-0.16023-0.59759-0.10682-0.13964-0.25986-0.20946-0.45911-0.20946-0.22391 0-0.4016 0.08625-0.53306 0.25875-0.1212 0.16223-0.1818 0.35732-0.1818 0.58527 0 0.24848 0.07292 0.45384 0.21877 0.61607 0.15201 0.16429 0.35127 0.24643 0.59777 0.24643 0.13763 0 0.30813-0.0298 0.5115-0.0893m-1.0107-0.93951c0.02465-0.30393 0.15098-0.45589 0.379-0.45589 0.22801 0 0.34202 0.15197 0.34202 0.45589h-0.72102m1.5272 0.99188h0.2958v-2.375h-0.2958v2.375m2.0893-0.0524v-0.23411c-0.18077 0.0657-0.33278 0.0986-0.45603 0.0986-0.33689 0-0.5269-0.19406-0.57004-0.58219h1.0322v-0.0924c0.0062-0.25053-0.04725-0.44973-0.16023-0.59759-0.10682-0.13964-0.25985-0.20946-0.45911-0.20946-0.22391 0-0.4016 0.08625-0.53306 0.25875-0.1212 0.16223-0.1818 0.35732-0.1818 0.58527 0 0.24848 0.07293 0.45384 0.21877 0.61607 0.15201 0.16429 0.35127 0.24643 0.59777 0.24643 0.13763 0 0.30813-0.0298 0.51149-0.0893m-1.0107-0.93951c0.02465-0.30393 0.15098-0.45589 0.379-0.45589 0.22801 0 0.34202 0.15197 0.34202 0.45589h-0.72102m1.4687 0.93335c0.18899 0.0637 0.35332 0.0955 0.49301 0.0955 0.16023 0 0.29786-0.04 0.41289-0.12014 0.12736-0.0924 0.19104-0.21562 0.19104-0.36964 0-0.12732-0.04519-0.23411-0.13558-0.32036-0.06163-0.0595-0.16434-0.12013-0.30813-0.18174l-0.14174-0.05853c-0.14585-0.06161-0.21877-0.13656-0.21877-0.22487 0-0.13964 0.09552-0.20946 0.28656-0.20946 0.09654 0 0.22801 0.02465 0.3944 0.07393v-0.24643l-0.06163-0.01232c-0.12942-0.02464-0.24239-0.03697-0.33894-0.03697-0.16434 0-0.29478 0.03491-0.39132 0.10473-0.11504 0.08214-0.17255 0.20022-0.17255 0.35424 0 0.19509 0.12736 0.34808 0.38208 0.45897l0.17255 0.0739c0.15817 0.0678 0.23726 0.15094 0.23726 0.24951 0 0.076-0.03184 0.13656-0.09552 0.18174-0.05752 0.0411-0.12428 0.0616-0.20028 0.0616-0.1438 0-0.31224-0.0483-0.50533-0.14478v0.27107m1.5707 0c0.18899 0.0637 0.35332 0.0955 0.49301 0.0955 0.16023 0 0.29786-0.0401 0.41289-0.12014 0.12736-0.0924 0.19104-0.21562 0.19104-0.36964-2e-6 -0.12732-0.04519-0.23411-0.13558-0.32036-0.06163-0.0596-0.16434-0.12013-0.30813-0.18174l-0.14174-0.05853c-0.14585-0.06161-0.21877-0.13656-0.21877-0.22487-2e-6 -0.13964 0.09552-0.20946 0.28656-0.20946 0.09655 0 0.22801 0.02465 0.3944 0.07393v-0.24643l-0.06162-0.01232c-0.12942-0.02464-0.2424-0.03697-0.33894-0.03697-0.16433 0-0.29478 0.03491-0.39132 0.10473-0.11504 0.08214-0.17255 0.20022-0.17255 0.35424 0 0.19509 0.12736 0.34808 0.38208 0.45897l0.17255 0.0739c0.15817 0.0678 0.23726 0.15094 0.23726 0.24951 0 0.076-0.03184 0.13656-0.09552 0.18174-0.05752 0.0411-0.12428 0.0616-0.20028 0.0616-0.14379 0-0.31224-0.0483-0.50533-0.14478v0.27107" style="fill:#eeeeec;opacity:.43033"/>
  <path d="m43.627 66.666h0.31429v-0.94259h0.2958l0.63166 0.94259h0.38824l-0.74259-1.0412c0.29991-0.12732 0.44986-0.33781 0.44987-0.63147-2e-6 -0.36964-0.22083-0.55446-0.66248-0.55447h-0.6748v2.2271m0.31429-1.1767v-0.81322h0.1972c0.33278 0 0.49917 0.115 0.49917 0.345 0 0.31214-0.19823 0.46821-0.59469 0.46821h-0.10168m2.2857 1.2137c0.25266 0 0.44987-0.0801 0.59161-0.24027 0.13147-0.14991 0.1972-0.35527 0.1972-0.61607-2e-6 -0.25464-0.06574-0.45692-0.1972-0.60683-0.13763-0.16223-0.33175-0.24335-0.58236-0.24335s-0.44474 0.0811-0.58237 0.24335c-0.13147 0.15607-0.1972 0.35938-0.1972 0.60991 0 0.24848 0.06471 0.45076 0.19412 0.60683 0.13968 0.16429 0.33175 0.24643 0.5762 0.24643m0.0031-0.22179c-0.16228 0-0.28348-0.0678-0.36359-0.2033-0.06163-0.11089-0.09244-0.25362-0.09244-0.42817-2e-6 -0.42098 0.15406-0.63147 0.46219-0.63147 0.31018 0 0.46527 0.20947 0.46528 0.62839-2e-6 0.42303-0.15715 0.63455-0.47144 0.63455m2.2687 0.18482h0.2958v-1.6326h-0.2958v1.0566c-0.15817 0.23821-0.32867 0.35732-0.5115 0.35732-0.09655 0-0.16125-0.0349-0.19412-0.10473-0.02465-0.0493-0.03698-0.12732-0.03698-0.23411v-1.075h-0.29889v1.1736c-2e-6 0.14991 0.04006 0.26902 0.12017 0.35732 0.08628 0.0924 0.20234 0.13861 0.34819 0.13861 0.22596 0 0.417-0.115 0.57312-0.345v0.30803m1.621 0v-0.2033c-0.05957 0.0123-0.10785 0.0185-0.14482 0.0185-0.18488 0-0.27732-0.10678-0.27732-0.32036v-0.90563h0.4283v-0.22179h-0.4283v-0.32652l-0.2958 0.0308v0.29572h-0.20336v0.22179h0.20336v0.96107c0 0.14991 0.04211 0.26902 0.12633 0.35732 0.08217 0.0863 0.19926 0.12937 0.35127 0.12937 0.06779 0 0.1479-0.0123 0.24034-0.037m1.6178-0.0524v-0.23411c-0.18077 0.0657-0.33278 0.0986-0.45603 0.0986-0.33689 0-0.5269-0.19406-0.57004-0.58219h1.0322v-0.0924c0.0062-0.25053-0.04725-0.44973-0.16023-0.59759-0.10682-0.13964-0.25986-0.20946-0.45911-0.20947-0.22391 0-0.40159 0.0862-0.53306 0.25875-0.1212 0.16223-0.18179 0.35732-0.18179 0.58527 0 0.24848 0.07292 0.45384 0.21877 0.61607 0.15201 0.16429 0.35127 0.24643 0.59777 0.24643 0.13763 0 0.30813-0.0298 0.51149-0.0893m-1.0107-0.93951c0.02465-0.30393 0.15098-0.45589 0.379-0.45589 0.22801 0 0.34202 0.15197 0.34202 0.45589h-0.72102m1.5272 0.99187h0.2958v-1.0781c0.12531-0.22178 0.28245-0.33268 0.47144-0.33268 0.03697 0 0.08217 8e-3 0.13558 0.0246v-0.27723c-0.01644-2e-3 -0.03287-3e-3 -0.0493-3e-3 -0.01438-2e-3 -0.02979-3e-3 -0.04622-3e-3 -0.22391 0-0.39441 0.11397-0.5115 0.34192v-0.30496h-0.2958v1.6326" style="fill:#eeeeec;opacity:.43033"/>
  <path d="m67.351 62.256h6.7338v3.0181h-8.5598z" style="fill-opacity:.96624;fill-rule:evenodd;fill:#73d216"/>
  <path d="m62.87 64.887h-2.8041v-0.68696c0.18914-0.22293 0.36398-0.42163 0.52453-0.59609 0.16055-0.17689 0.3057-0.34045 0.43546-0.49069 0.13196-0.15266 0.24852-0.29683 0.34969-0.43253 0.10116-0.13812 0.18474-0.27987 0.25072-0.42526 0.06818-0.14781 0.11986-0.30531 0.15505-0.47251 0.03519-0.16719 0.05278-0.35741 0.05278-0.57065-2e-6 -0.14781-0.0176-0.27623-0.05278-0.38528-0.03519-0.11146-0.08247-0.20354-0.14185-0.27624-0.05718-0.07511-0.12426-0.13085-0.20123-0.1672-0.07698-0.03634-0.15835-0.05452-0.24412-0.05452-0.13636 4e-6 -0.24522 0.01576-0.32659 0.04725-0.08137 0.03151-0.15615 0.07876-0.22433 0.14175l-0.14185 0.70514h-0.28701v-1.1086c0.17594-0.04361 0.34749-0.07996 0.51464-0.10904 0.16934-0.0315 0.35298-0.04725 0.55092-0.04725 0.48604 6e-6 0.85772 0.11026 1.115 0.33076 0.25951 0.22051 0.38927 0.53431 0.38927 0.94139-2e-6 0.19386-0.0209 0.36953-0.06268 0.52704-0.04179 0.15508-0.10337 0.30168-0.18474 0.4398-0.07918 0.13812-0.17814 0.27261-0.29691 0.40345-0.11876 0.13085-0.25622 0.26897-0.41236 0.41436-0.15395 0.14539-0.3255 0.30289-0.51463 0.47251-0.18914 0.16962-0.39367 0.36226-0.6136 0.57792h2.1707v0.82145m1.1348 0.10541c-0.07698 0-0.14845-0.0157-0.21443-0.0473-0.06598-0.0315-0.12426-0.0739-0.17484-0.12721-0.04839-0.0557-0.08687-0.11995-0.11546-0.19264-0.02859-0.0727-0.04289-0.15144-0.04289-0.23626 0-0.0824 0.01429-0.15993 0.04289-0.23262 0.02859-0.0751 0.06708-0.13933 0.11546-0.19264 0.05058-0.0557 0.10886-0.0994 0.17484-0.13085 0.06598-0.0315 0.13746-0.0473 0.21443-0.0473 0.07477 0 0.14515 0.0157 0.21113 0.0473 0.06818 0.0315 0.12646 0.0751 0.17485 0.13085 0.05058 0.0533 0.09017 0.11752 0.11876 0.19264 0.02859 0.0727 0.04289 0.15023 0.04289 0.23262 0 0.0848-0.0143 0.16356-0.04289 0.23626s-0.06818 0.13691-0.11876 0.19264c-0.04839 0.0533-0.10667 0.0957-0.17485 0.12721-0.06598 0.0315-0.13636 0.0473-0.21113 0.0473m3.6552-1.0686v0.9632h-0.88741v-0.9632h-1.8309v-0.59246l1.9926-3.3439h0.72577v3.1913h0.44206v0.74512h-0.44206m-0.88741-2.1881c-2e-6 -0.063 0.0011-0.12964 0.0033-0.19991s0.0044-0.13933 0.0066-0.20718c0.0044-0.07027 0.0077-0.13569 0.0099-0.19628 0.0044-0.063 0.0088-0.11873 0.01319-0.1672l-1.3163 2.2135h1.2833v-1.443" style="fill:#eeeeec"/>
  <path d="m70.398 61.727c-0.10914 0.03484-0.22251 0.06419-0.34011 0.08803s-0.24415 0.03576-0.37963 0.03576c-0.14959 0-0.2846-0.01972-0.40503-0.05914-0.11949-0.04034-0.22157-0.09949-0.30624-0.17743-0.08468-0.07886-0.14959-0.17605-0.19475-0.29159-0.04516-0.11553-0.06774-0.24895-0.06774-0.40025 0-0.32276 0.08279-0.56392 0.24838-0.72347 0.16653-0.16046 0.4102-0.2407 0.73102-0.2407 0.12231 2e-6 0.2385 0.0073 0.34858 0.02201 0.11102 0.01467 0.21639 0.03485 0.31612 0.06052v0.39612h-0.09455l-0.0381-0.22832c-0.06492-0.04493-0.14301-0.07931-0.23427-0.10316-0.09032-0.02476-0.18582-0.03713-0.28648-0.03714-0.11008 2e-6 -0.2084 0.01513-0.29495 0.04539-0.08562 0.02934-0.15806 0.07748-0.21733 0.14442s-0.1049 0.15496-0.13689 0.26408c-0.03105 0.1082-0.04657 0.2407-0.04657 0.39749 0 0.15863 0.01834 0.29113 0.05504 0.3975 0.03669 0.10545 0.08608 0.18981 0.14818 0.25308 0.06304 0.06327 0.13548 0.1082 0.21733 0.13479 0.08279 0.02659 0.16982 0.03989 0.26108 0.03989 0.0461 0 0.09173-0.0027 0.13689-0.0083 0.0461-0.0064 0.0889-0.01421 0.12842-0.02338 0.04045-0.0092 0.07621-0.01926 0.10725-0.03026 0.03105-0.011 0.05551-0.02155 0.07339-0.03164v-0.52403l-0.24274-0.03576v-0.07427h0.69857v0.07427l-0.18487 0.03576v0.59968m0.35987 0.09628v-0.0729l0.24273-0.03714v-1.6257l-0.24273-0.03576v-0.0729h0.75784v0.0729l-0.24273 0.03576v0.72485h0.89049v-0.72485l-0.24273-0.03576v-0.0729h0.75643v0.0729l-0.24273 0.03576v1.6257l0.24273 0.03714v0.0729h-0.75643v-0.0729l0.24273-0.03714v-0.77711h-0.89049v0.77711l0.24273 0.03714v0.0729h-0.75784m2.083 0v-0.0619l0.7282-1.121h-0.31188c-0.02634 0-0.05269 0.0014-0.07903 0.0041-0.0254 0.0018-0.04986 5e-3 -0.07339 0.0096-0.02258 0.0037-0.04281 0.0087-0.06068 0.01513-0.01788 0.0055-0.03152 0.01192-0.04093 0.01926l-0.04375 0.18568h-0.06633v-0.34385h0.9794v0.0674l-0.7282 1.1155h0.38809c0.0254 0 0.05221-0.0014 0.08044-0.0041 0.02917-0.0037 0.05692-0.0082 0.08326-0.01375 0.02728-0.0055 0.05222-0.01192 0.0748-0.01925 0.02352-0.0083 0.04234-0.01742 0.05645-0.02751l0.07197-0.27096h0.06633l-0.03528 0.44563h-1.0895" style="fill:#eeeeec"/>
  <path d="m68.898 64.147 0.32862-0.034c0.0094 0.0743 0.03717 0.13341 0.08333 0.17722 0.04616 0.043 0.09937 0.0645 0.15962 0.0645 0.06885 0 0.12715-0.0278 0.17487-0.0833 0.04773-0.0563 0.07159-0.14084 0.07159-0.25351-2e-6 -0.10563-0.02387-0.18465-0.07159-0.23708-0.04695-0.0532-0.10837-0.0798-0.18426-0.0798-0.09468 0-0.17957 0.0419-0.25468 0.12558l-0.26759-0.0387 0.16901-0.8955h0.87203v0.30867h-0.62204l-0.05164 0.29224c0.07355-0.0368 0.14866-0.0552 0.22534-0.0552 0.14632 0 0.27033 0.0532 0.37205 0.15962 0.10172 0.10641 0.15257 0.24451 0.15257 0.4143 0 0.14162-0.04108 0.26799-0.12323 0.37909-0.11189 0.15179-0.2672 0.22769-0.46594 0.22769-0.15883 0-0.28833-0.0426-0.38848-0.12793-0.10015-0.0853-0.16001-0.19991-0.17957-0.34388m1.98 0.44247v-0.34623h-0.70419v-0.28872l0.74645-1.0927h0.27698v1.0915h0.21361v0.28989h-0.21361v0.34623h-0.31924m0-0.63612v-0.588l-0.39552 0.588h0.39552m0.73119 0.71828 0.37674 0.0458c0.0063 0.0438 0.02073 0.0739 0.04343 0.0904 0.0313 0.0235 0.08059 0.0352 0.14788 0.0352 0.08607 0 0.15062-0.0129 0.19365-0.0387 0.02895-0.0172 0.05086-0.045 0.06572-0.0833 0.01017-0.0274 0.01526-0.0778 0.01526-0.1514v-0.18192c-0.09859 0.13458-0.223 0.20187-0.37322 0.20187-0.16744 0-0.30006-0.0708-0.39787-0.21243-0.07668-0.11189-0.11502-0.25116-0.11502-0.41782 0-0.20891 0.05008-0.36853 0.15023-0.47885 0.10093-0.11032 0.22612-0.16549 0.37557-0.16549 0.15414 0 0.28129 0.0677 0.38144 0.20304v-0.17487h0.30867v1.1185c-2e-6 0.1471-0.01213 0.25703-0.03638 0.3298-0.02426 0.0728-0.05829 0.12989-0.10211 0.17135-0.04382 0.0415-0.1025 0.0739-0.17605 0.0974-0.07277 0.0235-0.1651 0.0352-0.27698 0.0352-0.21126 0-0.3611-0.0364-0.44951-0.10915-0.08842-0.072-0.13262-0.16353-0.13262-0.27464 0-0.0109 3.92e-4 -0.0243 0.0012-0.0399m0.29459-0.73119c0 0.13223 0.02543 0.22925 0.07629 0.29107 0.05164 0.061 0.11502 0.0915 0.19013 0.0915 0.08059 0 0.14866-0.0313 0.20422-0.0939 0.05555-0.0634 0.08333-0.15688 0.08333-0.2805 0-0.1291-0.0266-0.22495-0.07981-0.28755s-0.1205-0.0939-0.20187-0.0939c-0.07903 0-0.14436 0.0309-0.196 0.0927-0.05086 0.061-0.07629 0.15453-0.07629 0.2805"/>
  <path d="m11.689 64.432s1.623-0.54788 2.6084-1.5477c0.98544-0.99986 1.3334-2.4517 1.3334-2.4517s0.3835 1.4809 1.3981 2.4809 2.6602 1.5191 2.6602 1.5191l-8-5.6e-4z" style="fill-rule:evenodd;fill:#eeeeec;opacity:.32377"/>
 </g>
</svg>
