<?xml version="1.0" encoding="UTF-8"?>
<svg width="32" height="32" version="1.0" xmlns="http://www.w3.org/2000/svg" xmlns:cc="http://creativecommons.org/ns#" xmlns:dc="http://purl.org/dc/elements/1.1/" xmlns:rdf="http://www.w3.org/1999/02/22-rdf-syntax-ns#" xmlns:xlink="http://www.w3.org/1999/xlink">
 <defs>
  <linearGradient id="linearGradient4902">
   <stop style="stop-color:#eeeeec" offset="0"/>
   <stop style="stop-color:#eeeeec;stop-opacity:0" offset="1"/>
  </linearGradient>
  <linearGradient id="linearGradient3505" x1="3" x2="4" y1="17.724" y2="17.724" gradientTransform="matrix(.65748 0 0 .85191 8.3874 -3.1582)" gradientUnits="userSpaceOnUse" xlink:href="#linearGradient4902"/>
  <linearGradient id="linearGradient4452" x1="8.159" x2="26.293" y1="33.293" y2="33.055" gradientTransform="matrix(.72038 0 0 .77502 -1.2614 -6.1678)" gradientUnits="userSpaceOnUse">
   <stop style="stop-color:#6996d0" offset="0"/>
   <stop style="stop-color:#3465a4" offset="1"/>
  </linearGradient>
  <linearGradient id="linearGradient4466" x1="28.651" x2=".38945" y1="35.368" y2="35.289" gradientTransform="matrix(.70646 0 0 .80588 -.92746 -7.7008)" gradientUnits="userSpaceOnUse">
   <stop style="stop-color:#204a87" offset="0"/>
   <stop style="stop-color:#204a87;stop-opacity:0" offset="1"/>
  </linearGradient>
  <filter id="filter4504" x="-.041795" y="-.6711" width="1.0836" height="2.3422">
   <feGaussianBlur stdDeviation="0.77455975"/>
  </filter>
  <linearGradient id="linearGradient4467" x1="-10.598" x2="26.735" y1="21.876" y2="28.762" gradientTransform="matrix(.72026 0 0 .78297 -1.2585 -5.3135)" gradientUnits="userSpaceOnUse">
   <stop style="stop-color:#7a7d77" offset="0"/>
   <stop style="stop-color:#3c3d3a" offset="1"/>
  </linearGradient>
 </defs>
 <metadata>
  <rdf:RDF>
   <cc:Work rdf:about="">
    <dc:format>image/svg+xml</dc:format>
    <dc:type rdf:resource="http://purl.org/dc/dcmitype/StillImage"/>
    <cc:license rdf:resource="http://creativecommons.org/licenses/GPL/2.0/"/>
    <dc:title/>
    <dc:date>June 2007</dc:date>
    <dc:creator>
     <cc:Agent>
      <dc:title>F.Bellaiche &lt;frederic.bellaiche@gmail.com&gt;</dc:title>
     </cc:Agent>
    </dc:creator>
    <dc:rights>
     <cc:Agent>
      <dc:title/>
     </cc:Agent>
    </dc:rights>
    <dc:publisher>
     <cc:Agent>
      <dc:title/>
     </cc:Agent>
    </dc:publisher>
    <dc:identifier/>
    <dc:source/>
    <dc:subject>
     <rdf:Bag/>
    </dc:subject>
   </cc:Work>
   <cc:License rdf:about="http://creativecommons.org/licenses/GPL/2.0/">
    <cc:permits rdf:resource="http://web.resource.org/cc/Reproduction"/>
    <cc:permits rdf:resource="http://web.resource.org/cc/Distribution"/>
    <cc:requires rdf:resource="http://web.resource.org/cc/Notice"/>
    <cc:permits rdf:resource="http://web.resource.org/cc/DerivativeWorks"/>
    <cc:requires rdf:resource="http://web.resource.org/cc/ShareAlike"/>
    <cc:requires rdf:resource="http://web.resource.org/cc/SourceCode"/>
   </cc:License>
  </rdf:RDF>
 </metadata>
 <g>
  <path transform="matrix(.71381 0 0 1.5622 -1.2669 -38.104)" d="m46.457 40.284a22.239 1.385 0 1 1-44.478 0 22.239 1.385 0 1 1 44.478 0z" style="fill-rule:evenodd;filter:url(#filter4504);opacity:.38934"/>
  <rect x="24.494" y="23.613" width="5.054" height="1.9355" style="fill-rule:evenodd;fill:#3465a4;stroke-linejoin:round;stroke-width:.9476;stroke:#173663"/>
  <rect x="2.4726" y="23.613" width="5.0801" height="1.9335" style="fill-rule:evenodd;fill:#3465a4;stroke-linejoin:round;stroke-width:.94955;stroke:#173663"/>
  <g transform="matrix(.73342 0 0 .71201 17.5 .28385)">
   <path d="m10.46 3.9658v9.0483l-0.96043 3.0791v9.8979s-0.008263 1.4914 0.42679 1.4914c0.56218 0.005694 1.4601 0.011387 2.0223 0.017081 0.37605 0.02024 0.49629-0.64464 0.4806-1.5198l0.003726-9.9261-0.96043-3v-9.0483c-0.28916-0.62767-0.73802-0.6256-1.0126-0.039571z" style="fill-rule:evenodd;stroke-linejoin:round;stroke-width:1px;stroke:#000"/>
   <path d="m10.468 4.2169c-0.035695-0.58068 0.51939-0.88992 0.5493 0 0.006707 6.8328-0.055962 22.722-0.055962 22.722h-0.69921c-0.46929-0.2081-0.30293-0.4451-0.3164-1.2298-0.035429-2.0642 0-9.6256 0-9.6256l0.55025-2.177s-0.09316-5.5733-0.027981-9.69z" style="fill-rule:evenodd;fill:url(#linearGradient3505);opacity:.5"/>
  </g>
  <g transform="matrix(.73342 0 0 .71201 -1.5313 .28385)">
   <path d="m10.46 3.9658v9.0483l-0.96043 3.0791v9.8979s-0.008263 1.4914 0.42679 1.4914c0.56218 0.005694 1.4601 0.011387 2.0223 0.017081 0.37605 0.02024 0.49629-0.64464 0.4806-1.5198l0.003726-9.9261-0.96043-3v-9.0483c-0.28916-0.62767-0.73802-0.6256-1.0126-0.039571z" style="fill-rule:evenodd;stroke-linejoin:round;stroke-width:1px;stroke:#000"/>
   <path d="m10.468 4.2169c-0.035695-0.58068 0.51939-0.88992 0.5493 0 0.006707 6.8328-0.055962 22.722-0.055962 22.722h-0.69921c-0.46929-0.2081-0.30293-0.4451-0.3164-1.2298-0.035429-2.0642 0-9.6256 0-9.6256l0.55025-2.177s-0.09316-5.5733-0.027981-9.69z" style="fill-rule:evenodd;fill:url(#linearGradient3505);opacity:.5"/>
  </g>
  <path transform="translate(-277.86 -33.079)" d="m29 31.5z" style="fill-rule:evenodd;fill:#d3d3d3;stroke:#bababa"/>
  <path d="m16.042 11.496c3.4804 0.044745 8.7338 0.53242 12.709 1.4781l2.6814 4.0341v5.4829c0 0.40396-0.31375 0.72916-0.70348 0.72916 0 0-7.3305 0.89825-14.697 0.87634-7.3662-0.02191-14.768-0.96397-14.768-0.96397-0.38973 0-0.70348-0.32521-0.70348-0.72916v-5.3953l2.7834-3.9102c4.0502-1.0958 9.1892-1.6468 12.698-1.602z" style="fill:url(#linearGradient4467);stroke-linecap:round;stroke-width:1.0412;stroke:#2e3436"/>
  <path d="m16.024 12.544c3.4302 0.045298 8.2428 0.47627 12.133 1.4336l2.4461 3.6762-29.191 0.031365 2.4904-3.6135c3.9919-1.1093 8.6635-1.573 12.122-1.5277z" style="fill:none;opacity:.16803;stroke-linecap:round;stroke-width:1.0401;stroke:#eeeeec"/>
  <path d="m16.082 14.411c1.1189 0.001218 6.1649 0.22643 8.6339 0.39303 0.21537 0.014532 0.57356 0.71139 0.79208 0.72738 2.9995 0.21948 5.1853 0.70691 5.5141 0.87729l0.49287 0.75829v5.7344c0 0.39981-0.31462 0.72168-0.70542 0.72168 0 0-7.3508 0.88903-14.737 0.86735-7.3866-0.021684-14.809-0.95408-14.809-0.95408-0.39081 0-0.70543-0.32187-0.70543-0.72168l-0.027981-5.7037 0.5095-0.73568c0.45211-0.1131 2.1578-0.63801 5.3126-0.85408 0.2384-0.016328 0.81116-0.74941 1.0439-0.76396 2.1529-0.13462 7.6792-0.3474 8.6862-0.34631z" style="fill:url(#linearGradient4452);stroke-linecap:round;stroke-width:1.036;stroke:#204a87"/>
  <path d="m1.5231 17.684s7.2296-0.79724 14.481-0.79724c7.2513 0 14.524 0.94348 14.524 0.94348v4.8534s-7.2731 0.77442-14.524 0.77442c-7.2513 0-14.481-0.83291-14.481-0.83291v-4.9412z" style="fill-rule:evenodd;fill:url(#linearGradient4466);stroke-linecap:round;stroke-linejoin:round;stroke-width:1.0462;stroke:#3b72ad"/>
  <path transform="translate(-329.95 -39.836)" d="m29 31.5z" style="fill-rule:evenodd;fill:#d3d3d3;stroke:#bababa"/>
  <path transform="translate(-340.64 -91.684)" d="m29 31.5z" style="fill-rule:evenodd;fill:#d3d3d3;stroke:#bababa"/>
  <path transform="translate(-395.17 -103.7)" d="m29 31.5z" style="fill-rule:evenodd;fill:#d3d3d3;stroke:#bababa"/>
  <path transform="translate(-284.32 25.921)" d="m29 31.5z" style="fill-rule:evenodd;fill:#d3d3d3;stroke:#bababa"/>
  <path d="m1.9937 19.566 28.049-0.08248" style="fill:none;opacity:.16393;stroke-width:.99814;stroke:#000"/>
  <path d="m2 18.996 17 0.031886-0.037917 3.8403s-2.4122 0.10611-7.5271-0.072425c-5.1149-0.17853-9.4679-0.41785-9.4679-0.41785l0.032923-3.3819z" style="fill-rule:evenodd;fill:#2e3436"/>
  <path d="m13.022 19.003h5.9981v3.8365s-1.7323 0.071842-3.4739 0.048604c-1.7418-0.023241-2.4948 0.013368-2.4948 0.013368l-0.029361-3.8984z" style="fill-rule:evenodd;fill:#555753;opacity:.63115"/>
  <rect x="3.3575" y="20.336" width="2.2894" height="1.2947" style="fill-rule:evenodd;fill:#fff;opacity:.14344;stroke-linejoin:round;stroke-width:.67941px;stroke:#fff"/>
  <rect x="7.1344" y="20.156" width=".69771" height=".69771" style="fill-rule:evenodd;fill:#8ae234;opacity:.53689;stroke-linejoin:round;stroke-width:.27534px;stroke:#73d216"/>
  <rect x="9.1605" y="20.208" width=".67765" height=".67765" style="fill-rule:evenodd;fill:#8ae234;opacity:.53689;stroke-linejoin:round;stroke-width:.26742px;stroke:#73d216"/>
  <rect x="11.167" y="20.184" width=".69771" height=".69771" style="fill-rule:evenodd;fill:#8ae234;opacity:.53689;stroke-linejoin:round;stroke-width:.27534px;stroke:#73d216"/>
  <path d="m14.262 20.909h0.10089l0.13155-0.61872 0.12561 0.61872h0.10089l0.20078-0.80311h-0.082093l-0.15825 0.62538-0.12759-0.62538h-0.096929l-0.13452 0.63427-0.14638-0.63427h-0.097917l0.18397 0.80311m0.75612 0h0.094953v-0.58873h-0.094953v0.58873m0-0.69536h0.094953v-0.10775h-0.094953v0.10775m0.28591 0.69536h0.094951v-0.38878c0.040222-0.079976 0.090664-0.11997 0.15133-0.11997 0.011868 1e-6 0.026375 0.002963 0.04352 0.008887v-0.099973c-0.005277-7.4e-4 -0.010551-0.001109-0.015826-0.00111-0.004616-7.4e-4 -0.009561-0.001111-0.014837-0.001111-0.071871 0-0.1266 0.0411-0.16418 0.1233v-0.10997h-0.094951v0.58873m0.78849-0.018884v-0.084421c-0.058025 0.023697-0.10682 0.035545-0.14638 0.035545-0.10814 0-0.16913-0.069981-0.18298-0.20994h0.33134v-0.033326c0.001978-0.090344-0.015165-0.16218-0.051431-0.2155-0.034289-0.050356-0.083413-0.075535-0.14737-0.075535-0.071874 0-0.12891 0.031102-0.17111 0.093307-0.038903 0.058504-0.058356 0.12885-0.058356 0.21105 0 0.089606 0.023409 0.16366 0.070226 0.22216 0.048794 0.059244 0.11275 0.088865 0.19188 0.088865 0.044179 0 0.098908-0.010737 0.16419-0.032213m-0.32442-0.3388c0.007912-0.1096 0.048465-0.1644 0.12166-0.1644 0.073192 0 0.10979 0.054799 0.10979 0.1644h-0.23144m0.49023 0.35768h0.094951v-0.85643h-0.094951v0.85643m0.67065-0.018884v-0.084421c-0.058026 0.023697-0.10682 0.035545-0.14638 0.035545-0.10814 0-0.16913-0.069981-0.18298-0.20994h0.33134v-0.033326c0.001977-0.090344-0.015166-0.16218-0.051433-0.2155-0.034287-0.050356-0.083411-0.075535-0.14737-0.075535-0.071874 0-0.12891 0.031102-0.17111 0.093307-0.038903 0.058504-0.058355 0.12885-0.058355 0.21105 0 0.089606 0.023408 0.16366 0.070224 0.22216 0.048795 0.059244 0.11276 0.088865 0.19188 0.088865 0.044179 0 0.098908-0.010737 0.16419-0.032213m-0.32442-0.3388c0.007913-0.1096 0.048465-0.1644 0.12166-0.1644s0.10979 0.054799 0.10979 0.1644h-0.23144m0.47144 0.33658c0.060662 0.022956 0.11341 0.034434 0.15825 0.034434 0.051431 0 0.095609-0.01444 0.13254-0.043322 0.04088-0.033323 0.061322-0.077755 0.061322-0.1333 0-0.045913-0.014507-0.084421-0.043519-0.11552-0.019783-0.021475-0.052751-0.043321-0.098908-0.065538l-0.045498-0.021104c-0.046816-0.022217-0.070224-0.049246-0.070224-0.081089 0-0.050356 0.030661-0.075534 0.091984-0.075534 0.03099 0 0.073191 0.008886 0.1266 0.026658v-0.088864l-0.019782-0.004443c-0.041542-0.008886-0.077808-0.01333-0.1088-0.01333-0.052751 0-0.094622 0.012589-0.12561 0.037768-0.036926 0.029622-0.055389 0.072202-0.055389 0.12774 0 0.070352 0.040882 0.12552 0.12264 0.16551l0.055388 0.026659c0.050773 0.024439 0.076159 0.05443 0.076159 0.089975 0 0.027401-0.010221 0.049246-0.03066 0.065538-0.018464 0.01481-0.039893 0.022216-0.06429 0.022216-0.046157 0-0.10023-0.017402-0.16221-0.052208v0.097752m0.5042 0c0.060662 0.022956 0.11341 0.034434 0.15825 0.034434 0.051431 0 0.09561-0.01444 0.13254-0.043322 0.040881-0.033323 0.061322-0.077755 0.061323-0.1333-1e-6 -0.045913-0.014506-0.084421-0.043519-0.11552-0.019782-0.021475-0.052751-0.043321-0.098908-0.065538l-0.045498-0.021104c-0.046816-0.022217-0.070224-0.049246-0.070223-0.081089-1e-6 -0.050356 0.030661-0.075534 0.091983-0.075534 0.030991 0 0.073192 0.008886 0.1266 0.026658v-0.088864l-0.019781-0.004443c-0.041542-0.008886-0.077808-0.01333-0.1088-0.01333-0.052751 0-0.094621 0.012589-0.12561 0.037768-0.036925 0.029622-0.055388 0.072202-0.055388 0.12774 0 0.070352 0.040882 0.12552 0.12264 0.16551l0.055389 0.026659c0.050772 0.024439 0.076159 0.05443 0.076159 0.089975 0 0.027401-0.010221 0.049246-0.030662 0.065538-0.018463 0.01481-0.039892 0.022216-0.064289 0.022216-0.046157 0-0.10023-0.017402-0.16221-0.052208v0.097752" style="fill:#eeeeec;opacity:.43033"/>
  <path d="m14.104 21.878h0.12349v-0.33991h0.11622l0.24819 0.33991h0.15254l-0.29177-0.37545c0.11784-0.045913 0.17676-0.12182 0.17676-0.22772-1e-6 -0.1333-0.086765-0.19994-0.26029-0.19994h-0.26513v0.80311m0.12349-0.42433v-0.29325h0.077483c0.13075 1e-6 0.19613 0.041472 0.19613 0.12441 0 0.11256-0.077885 0.16884-0.23366 0.16884h-0.039952m0.89808 0.43766c0.099274 0 0.17676-0.028881 0.23244-0.086643 0.051656-0.05406 0.077483-0.12811 0.077484-0.22216-1e-6 -0.091826-0.025828-0.16477-0.077484-0.21883-0.054076-0.058502-0.13035-0.087753-0.22881-0.087754-0.098467 1e-6 -0.17474 0.029252-0.22882 0.087754-0.051654 0.056281-0.077481 0.12959-0.077481 0.21994 0 0.089605 0.025423 0.16255 0.076271 0.21883 0.054883 0.059243 0.13035 0.088865 0.22639 0.088865m0.001211-0.079978c-0.063762 0-0.11138-0.024438-0.14286-0.073314-0.024213-0.039988-0.03632-0.091456-0.03632-0.1544 0-0.15181 0.060533-0.22772 0.1816-0.22772 0.12187 1e-6 0.18281 0.075536 0.18281 0.2266-1e-6 0.15255-0.061745 0.22883-0.18523 0.22883m0.89138 0.066647h0.11622v-0.58873h-0.11622v0.38101c-0.062147 0.085903-0.12914 0.12885-0.20097 0.12885-0.037935 0-0.063358-0.012589-0.076271-0.037766-0.009686-0.017773-0.014528-0.045914-0.014528-0.084423v-0.38767h-0.11743v0.42322c-2e-6 0.054061 0.015737 0.097011 0.047215 0.12885 0.033897 0.033325 0.079498 0.049987 0.1368 0.049987 0.088782 0 0.16384-0.041471 0.22518-0.12441v0.11108m0.63692 0v-0.073312c-0.023406 0.004443-0.042374 0.006665-0.0569 0.006665-0.072641 0-0.10896-0.038507-0.10896-0.11552v-0.32658h0.16828v-0.079978h-0.16828v-0.11774l-0.11622 0.011108v0.10664h-0.079904v0.079978h0.079904v0.34657c0 0.054058 0.016545 0.097009 0.049637 0.12885 0.032284 0.031103 0.078288 0.046655 0.13801 0.046655 0.026635 0 0.058112-0.004443 0.094432-0.013331m0.63565-0.018884v-0.08442c-0.071026 0.023697-0.13075 0.035546-0.17918 0.035546-0.13237 0-0.20702-0.069981-0.22397-0.20994h0.40557v-0.033324c0.002422-0.090344-0.018563-0.16218-0.062954-0.2155-0.04197-0.050357-0.1021-0.075534-0.18039-0.075535-0.087974 1e-6 -0.15779 0.031104-0.20944 0.093307-0.047619 0.058504-0.07143 0.12886-0.07143 0.21105 0 0.089606 0.028653 0.16366 0.085957 0.22216 0.059726 0.059243 0.13802 0.088865 0.23487 0.088865 0.054076 0 0.12107-0.010738 0.20097-0.032215m-0.3971-0.3388c0.009685-0.1096 0.059321-0.1644 0.14891-0.1644 0.089589 1e-6 0.13438 0.054801 0.13438 0.1644h-0.28329m0.60005 0.35768h0.11622v-0.38878c0.049233-0.079978 0.11098-0.11997 0.18523-0.11997 0.014528 1e-6 0.032283 0.002964 0.05327 0.008887v-0.099973c-0.006458-7.39e-4 -0.012914-0.00111-0.019371-0.00111-0.00565-7.4e-4 -0.011704-0.00111-0.018161-0.001111-0.087974 1e-6 -0.15496 0.0411-0.20097 0.1233v-0.10997h-0.11622v0.58873" style="fill:#eeeeec;opacity:.43033"/>
  <path d="m22.609 20.925h2.3745v1.0754h-3.0184l0.6439-1.0754z" style="fill-opacity:.96624;fill-rule:evenodd;fill:#73d216"/>
  <path d="m21.029 21.862h-0.98879v-0.24478c0.066694-0.079435 0.12835-0.15024 0.18496-0.2124 0.056613-0.063028 0.1078-0.12131 0.15355-0.17484 0.046531-0.054394 0.087634-0.10577 0.12331-0.15412 0.035673-0.049215 0.065142-0.099724 0.088409-0.15153 0.024041-0.052667 0.042265-0.10879 0.054675-0.16837 0.012408-0.059575 0.018612-0.12735 0.018612-0.20334 0-0.052668-0.006204-0.098428-0.018612-0.13728-0.01241-0.039716-0.029083-0.072527-0.050022-0.09843-0.020164-0.026765-0.043817-0.046624-0.07096-0.059577-0.027144-0.012949-0.055838-0.019425-0.086083-0.019427-0.048083 2e-6 -0.086471 0.005614-0.11516 0.016837-0.028695 0.011227-0.055063 0.028062-0.079104 0.05051l-0.050021 0.25126h-0.10121v-0.39502c0.062041-0.01554 0.12253-0.028491 0.18147-0.038855 0.059714-0.011223 0.12447-0.016834 0.19427-0.016836 0.17139 2e-6 0.30245 0.039286 0.39319 0.11786 0.091511 0.078573 0.13727 0.19039 0.13727 0.33544-1e-6 0.069076-0.00737 0.13167-0.022104 0.1878-0.014735 0.05526-0.03645 0.1075-0.065143 0.15671-0.02792 0.049215-0.062819 0.097135-0.1047 0.14376-0.041879 0.046626-0.090348 0.095841-0.14541 0.14765-0.054287 0.051804-0.11478 0.10793-0.18147 0.16837-0.066694 0.06044-0.13882 0.12908-0.21637 0.20593h0.76544v0.2927m0.40017 0.037558c-0.027142 0-0.052346-0.005612-0.075613-0.016836-0.023266-0.011224-0.043817-0.026336-0.061654-0.04533-0.017061-0.019858-0.030633-0.04274-0.040715-0.068642-0.010082-0.025903-0.015123-0.053963-0.015123-0.084183 0-0.029356 0.005041-0.056986 0.015123-0.082889 0.010082-0.026766 0.023654-0.049647 0.040715-0.068642 0.017837-0.019857 0.038388-0.0354 0.061654-0.046625 0.023267-0.011223 0.048471-0.016836 0.075613-0.016837 0.026368 1e-6 0.051185 0.005614 0.074452 0.016837 0.02404 0.011225 0.044592 0.026768 0.061654 0.046625 0.017836 0.018995 0.031795 0.041876 0.041877 0.068642 0.010082 0.025903 0.015123 0.053533 0.015123 0.082889 0 0.03022-0.005041 0.05828-0.015123 0.084183-0.010082 0.025902-0.024041 0.048784-0.041877 0.068642-0.017062 0.018994-0.037614 0.034106-0.061654 0.04533-0.023267 0.011224-0.048084 0.016836-0.074452 0.016836m1.2889-0.38077v0.34321h-0.31292v-0.34321h-0.64562v-0.21111l0.70263-1.1915h0.25592v1.1371h0.15588v0.2655h-0.15588m-0.31292-0.77967c-1e-6 -0.022448 3.86e-4 -0.046192 0.001163-0.071233 7.74e-4 -0.025037 0.001549-0.049645 0.002326-0.073822 0.001551-0.025039 0.002715-0.04835 0.00349-0.069937 0.001551-0.022448 0.003102-0.042307 0.004653-0.059576l-0.46415 0.78874h0.45252v-0.51417" style="fill:#eeeeec"/>
  <path d="m23.684 20.736c-0.038484 0.012416-0.078461 0.022871-0.11993 0.031366-0.04147 0.008493-0.086092 0.012741-0.13386 0.012741-0.052752 0-0.10036-0.007023-0.14282-0.021073-0.042134-0.014376-0.078129-0.035451-0.10799-0.063222-0.029858-0.028098-0.052748-0.062732-0.068673-0.1039s-0.023886-0.088706-0.023886-0.14262c0-0.11501 0.029195-0.20094 0.087584-0.25779 0.058721-0.057176 0.14465-0.085765 0.25778-0.085766 0.043128 1e-6 0.084099 0.002614 0.12292 0.007841 0.039147 0.005228 0.076304 0.012416 0.11147 0.021564v0.14115h-0.033341l-0.013437-0.081355c-0.022892-0.016009-0.050428-0.02826-0.082608-0.036757-0.031849-0.008821-0.065523-0.013232-0.10102-0.013232-0.038817 0-0.073485 0.00539-0.10401 0.016173-0.03019 0.010456-0.055737 0.027608-0.076637 0.051459-0.0209 0.023852-0.036991 0.055218-0.048271 0.094098-0.010948 0.038553-0.016422 0.085766-0.016422 0.14164 0 0.056524 0.006469 0.10374 0.019408 0.14164 0.012939 0.037574 0.030355 0.067633 0.052253 0.090177 0.022226 0.022544 0.047773 0.038554 0.076637 0.048029 0.029194 0.009475 0.059882 0.014213 0.092063 0.014213 0.016255 0 0.032345-9.81e-4 0.048271-0.00294 0.016256-0.002288 0.03135-0.005065 0.045285-0.008333 0.014266-0.003267 0.026872-0.00686 0.037821-0.01078 0.010948-0.003922 0.019572-0.00768 0.025878-0.011273v-0.18672l-0.085594-0.012743v-0.026464h0.24633v0.026464l-0.065191 0.012743v0.21368m0.1269 0.034306v-0.025974l0.085595-0.013234v-0.57929l-0.085595-0.012741v-0.025976h0.26723v0.025976l-0.085594 0.012741v0.25828h0.31401v-0.25828l-0.085593-0.012741v-0.025976h0.26674v0.025976l-0.085595 0.012741v0.57929l0.085595 0.013234v0.025974h-0.26674v-0.025974l0.085593-0.013234v-0.2769h-0.31401v0.2769l0.085594 0.013234v0.025974h-0.26723m0.73452 0v-0.022054l0.25678-0.39942h-0.10998c-0.00929 0-0.018579 4.9e-4 -0.027867 0.00147-0.00896 6.54e-4 -0.017585 0.001797-0.025878 0.00343-0.007962 0.001307-0.015097 0.003105-0.0214 0.005392-0.006302 0.001961-0.011113 0.004248-0.014431 0.006861l-0.015428 0.066162h-0.023387v-0.12252h0.34536v0.024014l-0.25678 0.39746h0.13685c0.008958 0 0.018413-4.89e-4 0.028366-0.00147 0.010283-0.001307 0.020071-0.00294 0.029361-0.0049 0.00962-0.00196 0.018412-0.004248 0.026374-0.006862 0.008295-0.00294 0.01493-0.006208 0.019906-0.009801l0.02538-0.096548h0.023388l-0.01244 0.15879h-0.38418" style="fill:#eeeeec"/>
  <path d="m23.155 21.599 0.11588-0.012127c0.003312 0.026486 0.013106 0.047535 0.029385 0.063148 0.016279 0.015334 0.035039 0.023001 0.056285 0.023001 0.024279 0 0.044834-0.009898 0.061665-0.029693 0.016831-0.020073 0.025244-0.050183 0.025245-0.090331-1e-6 -0.037638-0.008414-0.065796-0.025245-0.084476-0.016554-0.018958-0.038214-0.028436-0.064976-0.028436-0.033385 0-0.063321 0.014914-0.089807 0.044746l-0.094362-0.013801 0.059597-0.31909h0.3075v0.10999h-0.21935l-0.018211 0.10413c0.025936-0.013103 0.052422-0.019655 0.079462-0.019655 0.051595 0 0.095326 0.018959 0.13119 0.056875 0.035869 0.037917 0.053802 0.087125 0.053802 0.14762 0 0.050463-0.014485 0.09549-0.043455 0.13508-0.039454 0.054087-0.094222 0.081132-0.1643 0.081132-0.056008 0-0.10167-0.015195-0.13699-0.045585-0.035315-0.030389-0.056423-0.071234-0.06332-0.12253m0.69818 0.15766v-0.12337h-0.24832v-0.10288l0.26322-0.38935h0.097672v0.38893h0.075323v0.1033h-0.075323v0.12337h-0.11257m0-0.22666v-0.20952l-0.13947 0.20952h0.13947m0.25784 0.25594 0.13285 0.016309c0.002207 0.015612 0.00731 0.026346 0.015312 0.032201 0.011036 0.008364 0.028419 0.012546 0.052147 0.012546 0.030349 0 0.053112-0.0046 0.068287-0.0138 0.010208-0.006134 0.017933-0.016032 0.023177-0.029693 0.003585-0.009757 0.005379-0.027741 0.00538-0.053947v-0.064822c-0.034765 0.047954-0.078635 0.071932-0.13161 0.071932-0.059044 0-0.10581-0.025232-0.1403-0.075695-0.027039-0.039868-0.040558-0.089495-0.040558-0.14888 0-0.07444 0.017657-0.13132 0.052973-0.17062 0.035592-0.039313 0.079737-0.058967 0.13244-0.058967 0.054353 0 0.099187 0.024117 0.1345 0.072349v-0.062312h0.10885v0.39854c-1e-6 0.052416-0.004277 0.091585-0.01283 0.11751s-0.020556 0.046282-0.036006 0.061058c-0.015452 0.014776-0.036144 0.026346-0.062079 0.03471-0.025659 0.008365-0.058217 0.012546-0.097672 0.012546-0.074494 0-0.12733-0.012964-0.15851-0.038892-0.031177-0.025649-0.046766-0.058269-0.046766-0.097859 0-0.003903 1.38e-4 -0.008642 4.14e-4 -0.014218m0.10388-0.26054c0 0.047117 0.008966 0.081687 0.0269 0.10371 0.01821 0.021748 0.040558 0.032621 0.067046 0.032621 0.028417 0 0.052422-0.011153 0.072012-0.033457 0.019589-0.022582 0.029384-0.055899 0.029384-0.099949 0-0.046002-0.009382-0.080155-0.028143-0.10246-0.018762-0.022304-0.04249-0.033456-0.071184-0.033456-0.027866 0-0.050905 0.011013-0.069115 0.033038-0.017934 0.021746-0.0269 0.055063-0.0269 0.09995"/>
  <path transform="translate(-284.68 3.6024)" d="m29 31.5z" style="fill-rule:evenodd;fill:#d3d3d3;stroke:#bababa"/>
  <path transform="translate(-336.78 -3.155)" d="m29 31.5z" style="fill-rule:evenodd;fill:#d3d3d3;stroke:#bababa"/>
  <path transform="translate(-347.46 -55.002)" d="m29 31.5z" style="fill-rule:evenodd;fill:#d3d3d3;stroke:#bababa"/>
  <path transform="translate(-402 -67.023)" d="m29 31.5z" style="fill-rule:evenodd;fill:#d3d3d3;stroke:#bababa"/>
  <path transform="translate(-291.14 62.602)" d="m29 31.5z" style="fill-rule:evenodd;fill:#d3d3d3;stroke:#bababa"/>
  <path d="m3.1017 21.918s0.58525-0.26656 0.94061-0.75301c0.35536-0.48646 0.48083-1.1928 0.48083-1.1928s0.13829 0.7205 0.50415 1.207c0.36586 0.48652 0.95928 0.73907 0.95928 0.73907l-2.8849-2.72e-4z" style="fill-rule:evenodd;fill:#eeeeec;opacity:.32377"/>
 </g>
</svg>
