<?xml version="1.0" encoding="UTF-8"?>
<svg width="24" height="24" version="1.0" xmlns="http://www.w3.org/2000/svg" xmlns:cc="http://creativecommons.org/ns#" xmlns:dc="http://purl.org/dc/elements/1.1/" xmlns:rdf="http://www.w3.org/1999/02/22-rdf-syntax-ns#" xmlns:xlink="http://www.w3.org/1999/xlink">
 <defs>
  <linearGradient id="linearGradient4902">
   <stop style="stop-color:#eeeeec" offset="0"/>
   <stop style="stop-color:#eeeeec;stop-opacity:0" offset="1"/>
  </linearGradient>
  <linearGradient id="linearGradient3505" x1="3" x2="4" y1="17.724" y2="17.724" gradientTransform="matrix(.65748 0 0 .85191 8.3874 -3.1582)" gradientUnits="userSpaceOnUse" xlink:href="#linearGradient4902"/>
  <linearGradient id="linearGradient4452" x1="8.159" x2="26.293" y1="33.293" y2="33.055" gradientTransform="matrix(.53476 0 0 .61638 -.82835 -4.6925)" gradientUnits="userSpaceOnUse">
   <stop style="stop-color:#6996d0" offset="0"/>
   <stop style="stop-color:#3465a4" offset="1"/>
  </linearGradient>
  <linearGradient id="linearGradient4466" x1="28.651" x2=".38945" y1="35.368" y2="35.289" gradientTransform="matrix(.51488 0 0 .55165 -.35636 -2.4661)" gradientUnits="userSpaceOnUse">
   <stop style="stop-color:#204a87" offset="0"/>
   <stop style="stop-color:#204a87;stop-opacity:0" offset="1"/>
  </linearGradient>
  <filter id="filter4504" x="-.041795" y="-.6711" width="1.0836" height="2.3422">
   <feGaussianBlur stdDeviation="0.77455975"/>
  </filter>
  <linearGradient id="linearGradient4467" x1="-10.598" x2="26.735" y1="21.876" y2="28.762" gradientTransform="matrix(.53441 0 0 .63264 -.82 -4.0801)" gradientUnits="userSpaceOnUse">
   <stop style="stop-color:#7a7d77" offset="0"/>
   <stop style="stop-color:#3c3d3a" offset="1"/>
  </linearGradient>
 </defs>
 <metadata>
  <rdf:RDF>
   <cc:Work rdf:about="">
    <dc:format>image/svg+xml</dc:format>
    <dc:type rdf:resource="http://purl.org/dc/dcmitype/StillImage"/>
    <cc:license rdf:resource="http://creativecommons.org/licenses/GPL/2.0/"/>
    <dc:title/>
    <dc:date>June 2007</dc:date>
    <dc:creator>
     <cc:Agent>
      <dc:title>F.Bellaiche &lt;frederic.bellaiche@gmail.com&gt;</dc:title>
     </cc:Agent>
    </dc:creator>
    <dc:rights>
     <cc:Agent>
      <dc:title/>
     </cc:Agent>
    </dc:rights>
    <dc:publisher>
     <cc:Agent>
      <dc:title/>
     </cc:Agent>
    </dc:publisher>
    <dc:identifier/>
    <dc:source/>
    <dc:subject>
     <rdf:Bag/>
    </dc:subject>
   </cc:Work>
   <cc:License rdf:about="http://creativecommons.org/licenses/GPL/2.0/">
    <cc:permits rdf:resource="http://web.resource.org/cc/Reproduction"/>
    <cc:permits rdf:resource="http://web.resource.org/cc/Distribution"/>
    <cc:requires rdf:resource="http://web.resource.org/cc/Notice"/>
    <cc:permits rdf:resource="http://web.resource.org/cc/DerivativeWorks"/>
    <cc:requires rdf:resource="http://web.resource.org/cc/ShareAlike"/>
    <cc:requires rdf:resource="http://web.resource.org/cc/SourceCode"/>
   </cc:License>
  </rdf:RDF>
 </metadata>
 <g>
  <path transform="matrix(.53087 0 0 1.1618 -.85608 -26.841)" d="m46.457 40.284a22.239 1.385 0 1 1-44.478 0 22.239 1.385 0 1 1 44.478 0z" style="fill-rule:evenodd;filter:url(#filter4504);opacity:.38934"/>
  <rect x="18.523" y="18.882" width="3.9219" height="1.6135" style="fill-rule:evenodd;fill:#3465a4;stroke-linejoin:round;stroke-width:1.0066;stroke:#173663"/>
  <rect x="1.5432" y="18.864" width="3.994" height="1.6065" style="fill-rule:evenodd;fill:#3465a4;stroke-linejoin:round;stroke-width:1.0136;stroke:#173663"/>
  <g transform="matrix(.50506 0 0 .6296 12.965 -.88256)">
   <path d="m10.46 3.9658v9.0483l-0.84962 2.9458-0.055402 10.12s-0.063665 1.4025 0.37139 1.4025c0.56218 0.005694 1.4601 0.011387 2.0223 0.017081 0.37605 0.02024 0.7733-0.51132 0.75762-1.3865l-0.051676-10.104-1.182-2.9556v-9.0483c-0.28916-0.62767-0.73802-0.6256-1.0126-0.039571z" style="fill-rule:evenodd;stroke-linejoin:round;stroke-width:1px;stroke:#000"/>
   <path d="m10.468 4.2169c-0.035695-0.58068 0.51939-0.88992 0.5493 0 0.006707 6.8328-0.055962 22.722-0.055962 22.722h-0.69921c-0.46929-0.2081-0.30293-0.4451-0.3164-1.2298-0.035429-2.0642 0-9.6256 0-9.6256l0.55025-2.177s-0.09316-5.5733-0.027981-9.69z" style="fill-rule:evenodd;fill:url(#linearGradient3505);opacity:.5"/>
  </g>
  <g transform="matrix(.51506 0 0 .6322 -.16028 -.95584)">
   <path d="m10.46 3.9658v9.0483l-0.96043 2.9906-0.054326 10.119s0.046064 1.3586 0.48112 1.3586c0.56218 0.005694 1.4601 0.011387 2.0223 0.017081 0.37605 0.02024 0.49629-0.64464 0.4806-1.5198l0.058052-9.9261-1.0148-3v-9.0483c-0.28916-0.62767-0.73802-0.6256-1.0126-0.039571z" style="fill-rule:evenodd;stroke-linejoin:round;stroke-width:1px;stroke:#000"/>
   <path d="m10.468 4.2169c-0.035695-0.58068 0.51939-0.88992 0.5493 0 0.006707 6.8328-0.055962 22.722-0.055962 22.722h-0.69921c-0.46929-0.2081-0.30293-0.4451-0.3164-1.2298-0.035429-2.0642 0-9.6256 0-9.6256l0.55025-2.177s-0.09316-5.5733-0.027981-9.69z" style="fill-rule:evenodd;fill:url(#linearGradient3505);opacity:.5"/>
  </g>
  <path transform="translate(-277.86 -33.079)" d="m29 31.5z" style="fill-rule:evenodd;fill:#d3d3d3;stroke:#bababa"/>
  <path d="m12.016 9.5016c2.5824 0.036154 6.4802 0.4302 9.4298 1.1943l1.9895 3.2595v4.4302c0 0.3264-0.2328 0.58916-0.52197 0.58916 0 0-5.4391 0.72578-10.905 0.70808-5.4655-0.017704-10.958-0.77889-10.958-0.77889-0.28917 0-0.52197-0.26277-0.52197-0.58916v-4.3594l2.0652-3.1594c3.0052-0.88536 6.8181-1.3306 9.4216-1.2944z" style="fill:url(#linearGradient4467);stroke-linecap:round;stroke-width:1.0841;stroke:#2e3436"/>
  <path d="m12.33 10.519c2.5435 0.040135 5.4679 0.43552 8.4503 1.0266l2.0658 3.5008-21.813-0.012815 2.2107-3.3505c2.988-0.86104 6.5219-1.2042 9.0863-1.1641z" style="fill:none;opacity:.16803;stroke-linecap:round;stroke-width:.95419;stroke:#eeeeec"/>
  <path d="m12.019 11.394c0.83059 9.69e-4 3.9329 0.20807 5.7657 0.34056 0.15988 0.01156 1.1189 1.5209 1.2812 1.5336 2.2266 0.17455 3.8853 0.1101 4.1294 0.2456l0.3082 0.59669v4.3159c0 0.31797-0.23355 0.57396-0.52366 0.57396 0 0-5.4567 0.70706-10.94 0.68981-5.4833-0.017246-10.993-0.75879-10.993-0.75879-0.29011 0-0.52366-0.25599-0.52366-0.57396v-4.2469l0.34853-0.64547c0.33562-0.089948 1.6506 0.011458 3.9925-0.16038 0.17697-0.012986 1.1036-1.4557 1.2764-1.4673 1.5982-0.10707 5.1313-0.44418 5.8788-0.4433z" style="fill:url(#linearGradient4452);stroke-linecap:round;stroke-width:1.0513;stroke:#204a87"/>
  <path d="m1.5277 14.416s5.171-0.050858 10.456-0.050858c5.2849 0 10.586 0.10436 10.586 0.10436v3.7637s-5.2803 0.53012-10.565 0.53012c-5.2849 0-10.518-0.66387-10.518-0.66387l0.042015-3.6835z" style="fill-rule:evenodd;fill:url(#linearGradient4466);stroke-linecap:round;stroke-linejoin:round;stroke-width:.96866;stroke:#3b72ad"/>
  <path transform="translate(-329.95 -39.836)" d="m29 31.5z" style="fill-rule:evenodd;fill:#d3d3d3;stroke:#bababa"/>
  <path transform="translate(-340.64 -91.684)" d="m29 31.5z" style="fill-rule:evenodd;fill:#d3d3d3;stroke:#bababa"/>
  <path transform="translate(-395.17 -103.7)" d="m29 31.5z" style="fill-rule:evenodd;fill:#d3d3d3;stroke:#bababa"/>
  <path transform="translate(-284.32 25.921)" d="m29 31.5z" style="fill-rule:evenodd;fill:#d3d3d3;stroke:#bababa"/>
  <path d="m2.1222 15.613 19.943-0.20333" style="fill:none;opacity:.16393;stroke-width:.95209;stroke:#000"/>
  <path d="m1.9473 14.916h12.655v3.2756s-3.6555 0.11426-6.8192-0.037869c-3.1638-0.15212-5.8218-0.41673-5.8218-0.41673l-0.013991-2.821z" style="fill-rule:evenodd;fill:#2e3436"/>
  <path d="m10.014 14.937h4.5883v3.2275s-1.3251 0.06044-2.6574 0.04089c-1.3324-0.019551-1.9085 0.011247-1.9085 0.011247l-0.022461-3.2796z" style="fill-rule:evenodd;fill:#555753;opacity:.63115"/>
  <rect x="3.1892" y="16.214" width="1.6312" height=".60241" style="fill-rule:evenodd;fill:#fff;opacity:.14344;stroke-linejoin:round;stroke-width:.39119px;stroke:#fff"/>
  <rect x="6.1493" y="16.12" width=".73076" height=".69119" style="fill-rule:evenodd;fill:#8ae234;opacity:.53689;stroke-linejoin:round;stroke-width:.28046px;stroke:#73d216"/>
  <rect x="8.1653" y="16.138" width=".7123" height=".70241" style="fill-rule:evenodd;fill:#8ae234;opacity:.53689;stroke-linejoin:round;stroke-width:.27914px;stroke:#73d216"/>
  <path d="m17.092 16.868h1.8866v1.1033h-2.3981l0.51158-1.1033z" style="fill-opacity:.96624;fill-rule:evenodd;fill:#73d216"/>
  <path d="m15.837 17.83h-0.7856v-0.25113c0.052988-0.081497 0.10197-0.15413 0.14695-0.21791 0.044979-0.064663 0.085645-0.12446 0.122-0.17938 0.036969-0.055807 0.069626-0.10851 0.09797-0.15812 0.028341-0.05049 0.051756-0.10231 0.07024-0.15546 0.019101-0.054033 0.033581-0.11161 0.043441-0.17273 0.009856-0.061122 0.014785-0.13066 0.014785-0.20861 0-0.054033-0.004929-0.10098-0.014785-0.14085-0.00986-0.040744-0.023109-0.074406-0.039743-0.10098-0.016021-0.027457-0.034813-0.047831-0.056379-0.06112-0.021567-0.013286-0.044362-0.019931-0.068392-0.019932-0.038203 1e-6 -0.068703 0.005759-0.0915 0.017273-0.022799 0.011518-0.043748 0.028793-0.062848 0.051822l-0.039743 0.25777h-0.080407v-0.40526c0.049291-0.015944 0.097352-0.02923 0.14418-0.039863 0.047442-0.011515 0.098891-0.017271 0.15435-0.017274 0.13617 3e-6 0.2403 0.040307 0.31239 0.12092 0.072706 0.080612 0.10906 0.19533 0.10906 0.34414-1e-6 0.070868-0.005853 0.13509-0.017559 0.19267-0.011708 0.056694-0.028961 0.11029-0.051758 0.16078-0.022182 0.050492-0.049908 0.099657-0.08318 0.14749-0.033275 0.047834-0.071784 0.098327-0.11553 0.15147-0.043133 0.053151-0.091192 0.11073-0.14418 0.17274-0.05299 0.062008-0.11029 0.13243-0.17191 0.21127h0.60815v0.30029m0.31794 0.038534c-0.021565 0-0.04159-0.005759-0.060076-0.017275-0.018485-0.011515-0.034813-0.027018-0.048984-0.046506-0.013556-0.020373-0.024339-0.043849-0.032347-0.070422-0.008011-0.026575-0.012017-0.055364-0.012017-0.086368 0-0.030118 0.004006-0.058465 0.012017-0.085038 0.008008-0.027461 0.018791-0.050935 0.032347-0.070424 0.014171-0.020373 0.030499-0.036318 0.048984-0.047834 0.018486-0.011514 0.038511-0.017273 0.060076-0.017274 0.020949 1e-6 0.040666 0.00576 0.059153 0.017274 0.019099 0.011516 0.035426 0.027461 0.048983 0.047834 0.014171 0.019489 0.025262 0.042963 0.033272 0.070424 0.00801 0.026573 0.012015 0.05492 0.012015 0.085038 0 0.031004-0.004005 0.059793-0.012015 0.086368-0.00801 0.026573-0.019101 0.050049-0.033272 0.070422-0.013557 0.019488-0.029884 0.034991-0.048983 0.046506-0.018487 0.011516-0.038204 0.017275-0.059153 0.017275m1.0241-0.39065v0.35212h-0.24862v-0.35212h-0.51295v-0.21658l0.55824-1.2224h0.20333v1.1666h0.12385v0.27239h-0.12385m-0.24862-0.79989c-1e-6 -0.023032 3.08e-4 -0.047391 9.25e-4 -0.073081 6.15e-4 -0.025686 0.001231-0.050934 0.001847-0.075737 0.001233-0.025688 0.002157-0.049603 0.002772-0.071752 0.001234-0.02303 0.002467-0.043403 0.003699-0.061122l-0.36877 0.8092h0.35953v-0.52751" style="fill:#eeeeec"/>
  <path d="m17.946 16.675c-0.030577 0.012737-0.06234 0.023465-0.095287 0.03218-0.032949 0.008715-0.068399 0.013072-0.10636 0.013072-0.04191 0-0.079734-0.007208-0.11347-0.021621-0.033475-0.014748-0.062075-0.036369-0.085797-0.064862-0.023723-0.028826-0.04191-0.064358-0.054562-0.10659-0.012653-0.042236-0.018977-0.091008-0.018977-0.14632 0-0.11799 0.023194-0.20615 0.069585-0.26448 0.046655-0.058658 0.11492-0.087991 0.20481-0.087991 0.034266 0 0.066818 0.002681 0.097659 0.008046 0.031102 0.005363 0.060624 0.012736 0.088564 0.022122v0.14481h-0.026491l-0.010675-0.083464c-0.018188-0.016427-0.040064-0.028996-0.065633-0.037713-0.025303-0.00905-0.052057-0.013574-0.080262-0.013575-0.030839 1e-6 -0.058384 0.005531-0.082632 0.016594-0.023987 0.010727-0.044284 0.028323-0.060889 0.052793-0.016606 0.024471-0.029391 0.056648-0.038351 0.096538-0.008698 0.039554-0.013048 0.087992-0.013048 0.14531 0 0.057992 0.00514 0.10643 0.01542 0.14531 0.01028 0.038547 0.024118 0.069385 0.041515 0.092515 0.017659 0.023129 0.037955 0.039555 0.060889 0.049276 0.023194 0.009719 0.047575 0.01458 0.073143 0.01458 0.012915 0 0.025699-0.001007 0.038353-0.003016 0.012914-0.002346 0.024907-0.005196 0.035978-0.00855 0.011335-0.003352 0.02135-0.007037 0.030049-0.01106 0.008698-0.004022 0.015552-0.007877 0.02056-0.011565v-0.19157l-0.068006-0.013077v-0.02715h0.19571v0.02715l-0.051794 0.013077v0.21922m0.10082 0.035197v-0.02665l0.068003-0.013577v-0.59431l-0.068003-0.013074v-0.026647h0.21232v0.026647l-0.068003 0.013074v0.26498h0.24948v-0.26498l-0.068005-0.013074v-0.026647h0.21192v0.026647l-0.068005 0.013074v0.59431l0.068005 0.013577v0.02665h-0.21192v-0.02665l0.068005-0.013577v-0.28408h-0.24948v0.28408l0.068003 0.013577v0.02665h-0.21232m0.58358 0v-0.022628l0.20401-0.40978h-0.087378c-0.00738 0-0.014759 5.03e-4 -0.02214 0.001508-0.007117 6.7e-4 -0.01397 0.001843-0.02056 0.003519-0.006327 0.00134-0.011995 0.003186-0.017002 0.005532-0.005008 0.002012-0.00883 0.004357-0.011465 0.007037l-0.012257 0.06788h-0.018582v-0.1257h0.27439v0.024638l-0.20402 0.40777h0.10873c0.007118 0 0.014629-5.01e-4 0.022537-0.001507 0.008172-0.001342 0.015946-0.003016 0.023328-0.005029 0.007643-0.00201 0.014627-0.004358 0.020953-0.007038 0.006591-0.003017 0.011863-0.006371 0.015817-0.010056l0.020163-0.099052h0.018584l-0.009886 0.16291h-0.30523" style="fill:#eeeeec"/>
  <path d="m17.526 17.56 0.092069-0.012441c0.00263 0.027172 0.010412 0.048767 0.023345 0.064787 0.012933 0.015731 0.027841 0.023595 0.04472 0.023595 0.019289 0 0.03562-0.010153 0.048991-0.03046 0.013372-0.020595 0.020058-0.051487 0.020059-0.092676-1e-6 -0.038615-0.006687-0.067504-0.020059-0.086668-0.013151-0.019451-0.030359-0.029174-0.051623-0.029174-0.026524 0-0.050308 0.015302-0.071354 0.045908l-0.074968-0.01416 0.04735-0.32736h0.24431v0.11284h-0.17427l-0.014468 0.10683c0.020606-0.013444 0.04165-0.020164 0.063132-0.020164 0.040992 0 0.075737 0.019449 0.10424 0.058349 0.028497 0.0389 0.042744 0.089387 0.042744 0.15145 0 0.051774-0.011508 0.097968-0.034526 0.13858-0.031346 0.055491-0.07486 0.083237-0.13054 0.083237-0.0445 0-0.08078-0.015589-0.10884-0.046767s-0.044828-0.073083-0.050308-0.12571m0.55471 0.16175v-0.12657h-0.19729v-0.10555l0.20913-0.39944h0.077601v0.39902h0.059844v0.10598h-0.059844v0.12657h-0.089438m0-0.23254v-0.21495l-0.11081 0.21495h0.11081m0.20485 0.26258 0.10555 0.016732c0.001754 0.016017 0.00581 0.027029 0.012168 0.033037 0.008767 0.008581 0.022578 0.012871 0.041429 0.012871 0.024113 0 0.042198-0.004719 0.054255-0.014158 0.00811-0.006293 0.014248-0.016448 0.018413-0.030462 0.00285-0.010014 0.004274-0.02846 0.004276-0.055348v-0.066501c-0.027622 0.049197-0.062476 0.073794-0.10456 0.073794-0.046911 0-0.084066-0.025884-0.11147-0.077656-0.021483-0.040904-0.032224-0.091816-0.032224-0.15274 0-0.07637 0.014029-0.13472 0.042089-0.17505 0.028276-0.04033 0.06335-0.060496 0.10522-0.060496 0.043186 0 0.078807 0.024743 0.10687 0.074227v-0.063929h0.086477v0.40888c0 0.053775-0.003397 0.093962-0.010193 0.12056-0.006795 0.026603-0.016331 0.047482-0.028606 0.062642-0.012276 0.015161-0.028718 0.027031-0.049323 0.035611-0.020386 0.008583-0.046253 0.012872-0.077599 0.012872-0.059187 0-0.10117-0.013301-0.12594-0.039902-0.024771-0.026315-0.037157-0.05978-0.037157-0.1004 0-0.004003 1.09e-4 -0.008867 3.3e-4 -0.014586m0.082532-0.2673c0 0.048338 0.007123 0.083809 0.021372 0.1064 0.014468 0.022309 0.032225 0.033466 0.053268 0.033466 0.022579 0 0.04165-0.011442 0.057213-0.034325 0.015565-0.023168 0.023348-0.05735 0.023348-0.10254 0-0.047196-0.007455-0.082236-0.02236-0.10512-0.014907-0.02288-0.033759-0.034322-0.056557-0.034323-0.022139 1e-6 -0.040444 0.011297-0.054912 0.033893-0.014249 0.022313-0.021372 0.056494-0.021372 0.10254"/>
  <path transform="translate(-284.68 3.6024)" d="m29 31.5z" style="fill-rule:evenodd;fill:#d3d3d3;stroke:#bababa"/>
  <path transform="translate(-336.78 -3.155)" d="m29 31.5z" style="fill-rule:evenodd;fill:#d3d3d3;stroke:#bababa"/>
  <path transform="translate(-347.46 -55.002)" d="m29 31.5z" style="fill-rule:evenodd;fill:#d3d3d3;stroke:#bababa"/>
  <path transform="translate(-402 -67.023)" d="m29 31.5z" style="fill-rule:evenodd;fill:#d3d3d3;stroke:#bababa"/>
  <path transform="translate(-291.14 62.602)" d="m29 31.5z" style="fill-rule:evenodd;fill:#d3d3d3;stroke:#bababa"/>
 </g>
</svg>
