<?xml version="1.0" encoding="UTF-8"?>
<svg width="22" height="22" version="1.0" xmlns="http://www.w3.org/2000/svg" xmlns:cc="http://creativecommons.org/ns#" xmlns:dc="http://purl.org/dc/elements/1.1/" xmlns:rdf="http://www.w3.org/1999/02/22-rdf-syntax-ns#" xmlns:xlink="http://www.w3.org/1999/xlink">
 <defs>
  <linearGradient id="linearGradient4902">
   <stop style="stop-color:#eeeeec" offset="0"/>
   <stop style="stop-color:#eeeeec;stop-opacity:0" offset="1"/>
  </linearGradient>
  <linearGradient id="linearGradient3505" x1="3" x2="4" y1="17.724" y2="17.724" gradientTransform="matrix(.65748 0 0 .85191 8.3874 -3.1582)" gradientUnits="userSpaceOnUse" xlink:href="#linearGradient4902"/>
  <linearGradient id="linearGradient4452" x1="8.159" x2="26.293" y1="33.293" y2="33.055" gradientTransform="matrix(.48862 0 0 .58918 -.70702 -4.8378)" gradientUnits="userSpaceOnUse">
   <stop style="stop-color:#6996d0" offset="0"/>
   <stop style="stop-color:#3465a4" offset="1"/>
  </linearGradient>
  <linearGradient id="linearGradient4466" x1="28.651" x2=".38945" y1="35.368" y2="35.289" gradientTransform="matrix(.46507 0 0 .49916 -.16035 -1.766)" gradientUnits="userSpaceOnUse">
   <stop style="stop-color:#204a87" offset="0"/>
   <stop style="stop-color:#204a87;stop-opacity:0" offset="1"/>
  </linearGradient>
  <filter id="filter4504" x="-.041795" y="-.6711" width="1.0836" height="2.3422">
   <feGaussianBlur stdDeviation="0.77455975"/>
  </filter>
  <linearGradient id="linearGradient4467" x1="-10.598" x2="26.735" y1="21.876" y2="28.762" gradientTransform="matrix(.48813 0 0 .61336 -.69542 -4.58)" gradientUnits="userSpaceOnUse">
   <stop style="stop-color:#7a7d77" offset="0"/>
   <stop style="stop-color:#3c3d3a" offset="1"/>
  </linearGradient>
 </defs>
 <metadata>
  <rdf:RDF>
   <cc:Work rdf:about="">
    <dc:format>image/svg+xml</dc:format>
    <dc:type rdf:resource="http://purl.org/dc/dcmitype/StillImage"/>
    <cc:license rdf:resource="http://creativecommons.org/licenses/GPL/2.0/"/>
    <dc:title/>
    <dc:date>June 2007</dc:date>
    <dc:creator>
     <cc:Agent>
      <dc:title>F.Bellaiche &lt;frederic.bellaiche@gmail.com&gt;</dc:title>
     </cc:Agent>
    </dc:creator>
    <dc:rights>
     <cc:Agent>
      <dc:title/>
     </cc:Agent>
    </dc:rights>
    <dc:publisher>
     <cc:Agent>
      <dc:title/>
     </cc:Agent>
    </dc:publisher>
    <dc:identifier/>
    <dc:source/>
    <dc:subject>
     <rdf:Bag/>
    </dc:subject>
   </cc:Work>
   <cc:License rdf:about="http://creativecommons.org/licenses/GPL/2.0/">
    <cc:permits rdf:resource="http://web.resource.org/cc/Reproduction"/>
    <cc:permits rdf:resource="http://web.resource.org/cc/Distribution"/>
    <cc:requires rdf:resource="http://web.resource.org/cc/Notice"/>
    <cc:permits rdf:resource="http://web.resource.org/cc/DerivativeWorks"/>
    <cc:requires rdf:resource="http://web.resource.org/cc/ShareAlike"/>
    <cc:requires rdf:resource="http://web.resource.org/cc/SourceCode"/>
   </cc:License>
  </rdf:RDF>
 </metadata>
 <g>
  <path transform="matrix(.48556 0 0 1.0627 -.74452 -23.772)" d="m46.457 40.284a22.239 1.385 0 1 1-44.478 0 22.239 1.385 0 1 1 44.478 0z" style="fill-rule:evenodd;filter:url(#filter4504);opacity:.38934"/>
  <rect x="16.59" y="17.797" width="3.9224" height="1.6711" style="fill-rule:evenodd;fill:#3465a4;stroke-linejoin:round;stroke-width:1.1107;stroke:#173663"/>
  <rect x="1.5048" y="17.779" width="3.9634" height="1.6677" style="fill-rule:evenodd;fill:#3465a4;stroke-linejoin:round;stroke-width:1.1077;stroke:#173663"/>
  <g transform="matrix(.46195 0 0 .57586 12.45 -.02919)">
   <path d="m10.46 3.9658v9.0483l-0.84962 2.9458-0.055402 10.12s-0.063665 1.4025 0.37139 1.4025c0.56218 0.005694 1.4601 0.011387 2.0223 0.017081 0.37605 0.02024 0.7733-0.51132 0.75762-1.3865l-0.051676-10.104-1.182-2.9556v-9.0483c-0.28916-0.62767-0.73802-0.6256-1.0126-0.039571z" style="fill-rule:evenodd;stroke-linejoin:round;stroke-width:1px;stroke:#000"/>
   <path d="m10.468 4.2169c-0.035695-0.58068 0.51939-0.88992 0.5493 0 0.006707 6.8328-0.055962 22.722-0.055962 22.722h-0.69921c-0.46929-0.2081-0.30293-0.4451-0.3164-1.2298-0.035429-2.0642 0-9.6256 0-9.6256l0.55025-2.177s-0.09316-5.5733-0.027981-9.69z" style="fill-rule:evenodd;fill:url(#linearGradient3505);opacity:.5"/>
  </g>
  <g transform="matrix(.4711 0 0 .57824 -.62161 -.056715)">
   <path d="m10.46 3.9658v9.0483l-0.96043 2.9906-0.054326 10.119s0.046064 1.3586 0.48112 1.3586c0.56218 0.005694 1.4601 0.011387 2.0223 0.017081 0.37605 0.02024 0.49629-0.64464 0.4806-1.5198l0.058052-9.9261-1.0148-3v-9.0483c-0.28916-0.62767-0.73802-0.6256-1.0126-0.039571z" style="fill-rule:evenodd;stroke-linejoin:round;stroke-width:1px;stroke:#000"/>
   <path d="m10.468 4.2169c-0.035695-0.58068 0.51939-0.88992 0.5493 0 0.006707 6.8328-0.055962 22.722-0.055962 22.722h-0.69921c-0.46929-0.2081-0.30293-0.4451-0.3164-1.2298-0.035429-2.0642 0-9.6256 0-9.6256l0.55025-2.177s-0.09316-5.5733-0.027981-9.69z" style="fill-rule:evenodd;fill:url(#linearGradient3505);opacity:.5"/>
  </g>
  <path transform="translate(-277.86 -33.079)" d="m29 31.5z" style="fill-rule:evenodd;fill:#d3d3d3;stroke:#bababa"/>
  <path d="m11.029 8.5599c2.3587 0.035052 5.919 0.44507 8.6131 1.1859l1.8172 3.1602v4.2952c0 0.31645-0.21264 0.57121-0.47676 0.57121 0 0-4.968 0.70366-9.9602 0.6865-4.9922-0.017163-10.009-0.75515-10.009-0.75515-0.26413 0-0.47676-0.25476-0.47676-0.5712v-4.2265l1.8863-3.0631c2.7449-0.85838 6.2277-1.318 8.6057-1.283z" style="fill:url(#linearGradient4467);stroke-linecap:round;stroke-width:1.027;stroke:#2e3436"/>
  <path d="m11.468 9.6079c2.3208 0.042876 4.7374 0.40931 7.4587 1.0408l2.1647 3.8239-20.239 0.01429 2.2969-3.7473c2.7264-0.91985 5.9789-1.1746 8.3188-1.1317z" style="fill:none;opacity:.16803;stroke-linecap:round;stroke-width:1.0775;stroke:#eeeeec"/>
  <path d="m11.031 10.539c0.75892 9.28e-4 3.4256 0.22687 5.1002 0.35351 0.14608 0.011049 1.1903 1.5657 1.3385 1.5779 2.0345 0.16685 3.55-0.034665 3.773 0.09486l0.2816 0.57036v4.1254c0 0.30394-0.2134 0.54863-0.47847 0.54863 0 0-4.9859 0.67586-9.996 0.65938-5.0101-0.016485-10.045-0.72531-10.045-0.72531-0.26507 0-0.47847-0.24469-0.47847-0.54864l0.027981-4.1434 0.31845-0.39314c0.27868-0.085979 1.4522-0.04501 3.592-0.20927 0.1617-0.012412 1.1763-1.4754 1.3341-1.4865 1.4603-0.10234 4.5486-0.42458 5.2316-0.42374z" style="fill:url(#linearGradient4452);stroke-linecap:round;stroke-width:1.0199;stroke:#204a87"/>
  <path d="m1.5414 13.51s4.6708-0.046017 9.4444-0.046017c4.7736 0 9.5615 0.094426 9.5615 0.094426v3.4056s-4.7974 0.538-9.5711 0.538c-4.7736 0-9.5007-0.6007-9.5007-0.6007l0.065902-3.3913z" style="fill-rule:evenodd;fill:url(#linearGradient4466);stroke-linecap:round;stroke-linejoin:round;stroke-width:.98664;stroke:#3b72ad"/>
  <path transform="translate(-329.95 -39.836)" d="m29 31.5z" style="fill-rule:evenodd;fill:#d3d3d3;stroke:#bababa"/>
  <path transform="translate(-340.64 -91.684)" d="m29 31.5z" style="fill-rule:evenodd;fill:#d3d3d3;stroke:#bababa"/>
  <path transform="translate(-395.17 -103.7)" d="m29 31.5z" style="fill-rule:evenodd;fill:#d3d3d3;stroke:#bababa"/>
  <path transform="translate(-284.32 25.921)" d="m29 31.5z" style="fill-rule:evenodd;fill:#d3d3d3;stroke:#bababa"/>
  <path d="m2.0229 14.814c5.6276 0.1986 13.747-0.50709 17.982-0.31375" style="fill:none;opacity:.16393;stroke-width:1.123;stroke:#000"/>
  <path d="m2.0154 13.995h11.379l0.027981 3.1438s-3.0632 0.029393-5.7679-0.026569c-2.7054-0.055978-5.6546-0.12684-5.6546-0.12684l0.015422-2.9904z" style="fill-rule:evenodd;fill:#2e3436"/>
  <path d="m9 14h4.3945v3.1175s-1.2692 0.05838-2.5452 0.039497c-1.2761-0.018886-1.8279 0.010864-1.8279 0.010864l-0.021512-3.1679z" style="fill-rule:evenodd;fill:#555753;opacity:.63115"/>
  <rect x="3.1362" y="15.173" width=".71095" height=".66536" style="fill-rule:evenodd;fill:#fff;opacity:.14344;stroke-linejoin:round;stroke-width:.27142px;stroke:#fff"/>
  <rect x="5.1412" y="15.196" width=".73268" height=".66851" style="fill-rule:evenodd;fill:#8ae234;opacity:.53689;stroke-linejoin:round;stroke-width:.27619px;stroke:#73d216"/>
  <rect x="7.127" y="15.186" width=".73989" height=".67488" style="fill-rule:evenodd;fill:#8ae234;opacity:.53689;stroke-linejoin:round;stroke-width:.27886px;stroke:#73d216"/>
  <path d="m15.304 15.911h1.7524v1.0886h-2.2276l0.47521-1.0886z" style="fill-opacity:.96624;fill-rule:evenodd;fill:#73d216"/>
  <path d="m14.137 16.86h-0.72975v-0.24778c0.049221-0.080408 0.094724-0.15208 0.1365-0.215 0.041781-0.0638 0.079555-0.12279 0.11332-0.17698 0.034341-0.055061 0.064675-0.10706 0.091005-0.15601 0.026325-0.049816 0.048075-0.10095 0.065245-0.15339 0.017743-0.053312 0.031194-0.11012 0.040353-0.17043 0.009154-0.060305 0.013733-0.12891 0.013733-0.20582 0-0.053313-0.004579-0.099637-0.013733-0.13897-0.009159-0.0402-0.021466-0.073413-0.036917-0.099634-0.014883-0.027091-0.032338-0.047194-0.052371-0.060304-0.020034-0.013109-0.041208-0.019665-0.06353-0.019666-0.035486 1e-6 -0.063818 0.005681-0.084994 0.017042-0.021178 0.011365-0.040638 0.028408-0.058379 0.05113l-0.036918 0.25433h-0.07469v-0.39985c0.045786-0.015731 0.09043-0.02884 0.13393-0.039331 0.044069-0.011361 0.091861-0.017041 0.14337-0.017043 0.12649 2e-6 0.22321 0.039768 0.29018 0.1193 0.067536 0.079534 0.1013 0.19272 0.1013 0.33954-1e-6 0.069922-0.005437 0.13328-0.01631 0.1901-0.010876 0.055935-0.026902 0.10881-0.048078 0.15863-0.020605 0.049818-0.046359 0.098325-0.077266 0.14552-0.03091 0.047195-0.066681 0.097013-0.10732 0.14945-0.040066 0.052441-0.084708 0.10925-0.13393 0.17043-0.049222 0.061181-0.10245 0.13066-0.15969 0.20845h0.56491v0.29628m0.29533 0.03802c-0.020032 0-0.038633-0.005682-0.055805-0.017044-0.01717-0.011361-0.032337-0.026659-0.045501-0.045885-0.012593-0.020101-0.022609-0.043264-0.030048-0.069483-0.007441-0.026219-0.011162-0.054624-0.011162-0.085214 0-0.029715 0.003721-0.057685 0.011162-0.083902 0.007439-0.027095 0.017455-0.050255 0.030048-0.069484 0.013164-0.020101 0.028331-0.035834 0.045501-0.047196 0.017172-0.01136 0.035773-0.017041 0.055805-0.017042 0.01946 1e-6 0.037775 0.005682 0.054947 0.017042 0.017741 0.011362 0.032907 0.027095 0.045501 0.047196 0.013163 0.019229 0.023465 0.042389 0.030906 0.069484 0.00744 0.026217 0.01116 0.054187 0.01116 0.083902 0 0.03059-0.00372 0.058995-0.01116 0.085214-0.007441 0.026219-0.017743 0.049382-0.030906 0.069483-0.012594 0.019226-0.02776 0.034524-0.045501 0.045885-0.017172 0.011362-0.035487 0.017044-0.054947 0.017044m0.95124-0.38543v0.34741h-0.23094v-0.34741h-0.47648v-0.21369l0.51855-1.2061h0.18888v1.151h0.11504v0.26875h-0.11504m-0.23094-0.78921c-1e-6 -0.022725 2.86e-4 -0.046758 8.59e-4 -0.072106 5.71e-4 -0.025343 0.001144-0.050253 0.001716-0.074725 0.001145-0.025345 0.002004-0.04894 0.002575-0.070794 0.001147-0.022723 0.002292-0.042823 0.003437-0.060306l-0.34255 0.79839h0.33397v-0.52046" style="fill:#eeeeec"/>
  <path d="m16.096 15.721c-0.028402 0.012567-0.057908 0.023151-0.088512 0.031751-0.030607 0.008598-0.063536 0.012896-0.098795 0.012896-0.03893 0-0.074065-0.007111-0.1054-0.021332-0.031095-0.01455-0.057661-0.035883-0.079697-0.063995-0.022037-0.028442-0.038931-0.0635-0.050683-0.10517-0.011753-0.041673-0.017628-0.089795-0.017628-0.14436 0-0.11642 0.021545-0.2034 0.064638-0.26094 0.043338-0.057875 0.10675-0.086815 0.19024-0.086815 0.03183 0 0.062067 0.002644 0.090717 0.007937 0.02889 0.005292 0.056312 0.012567 0.082266 0.021827v0.14287h-0.024607l-0.009916-0.082349c-0.016895-0.016207-0.037216-0.028608-0.060967-0.03721-0.023504-0.008928-0.048355-0.013391-0.074555-0.013392-0.028646 1e-6 -0.054233 0.005456-0.076757 0.016371-0.022282 0.010585-0.041135 0.027946-0.05656 0.052089-0.015426 0.024143-0.027302 0.055891-0.035624 0.095249-0.00808 0.039025-0.01212 0.086816-0.01212 0.14337 0 0.057218 0.004774 0.10501 0.014322 0.14337 0.00955 0.038032 0.022405 0.068458 0.038564 0.091279 0.016404 0.022821 0.035258 0.039027 0.056561 0.048618 0.021544 0.00959 0.044192 0.014386 0.067942 0.014386 0.011996 0 0.023871-9.94e-4 0.035626-0.002975 0.011995-0.002315 0.023136-0.005128 0.03342-0.008437 0.010529-0.003306 0.019832-0.006943 0.027912-0.010912 0.00808-0.003968 0.014447-0.007772 0.019099-0.011411v-0.18901l-0.063171-0.012902v-0.026788h0.1818v0.026788l-0.048112 0.012902v0.2163m0.093654 0.034727v-0.026294l0.063168-0.013396v-0.58638l-0.063168-0.0129v-0.026292h0.19722v0.026292l-0.063168 0.0129v0.26144h0.23174v-0.26144l-0.06317-0.0129v-0.026292h0.19686v0.026292l-0.06317 0.0129v0.58638l0.06317 0.013396v0.026294h-0.19686v-0.026294l0.06317-0.013396v-0.28029h-0.23174v0.28029l0.063168 0.013396v0.026294h-0.19722m0.54208 0v-0.022326l0.18951-0.40431h-0.081165c-0.006855 0-0.01371 4.95e-4 -0.020566 0.001486-0.00661 6.62e-4 -0.012977 0.001819-0.019098 0.003473-0.005877 0.001322-0.011142 0.003143-0.015793 0.005458-0.004653 0.001985-0.008203 0.004299-0.01065 0.006944l-0.011385 0.066973h-0.017262v-0.12402h0.25488v0.024307l-0.18951 0.40233h0.101c0.006612 0 0.013589-4.94e-4 0.020935-0.001487 0.007591-0.001323 0.014812-0.002976 0.02167-0.004962 0.007098-0.001982 0.013586-0.004299 0.019462-0.006944 0.006123-0.002977 0.01102-0.006285 0.014692-0.009921l0.018731-0.097729h0.017262l-0.009182 0.16073h-0.28353" style="fill:#eeeeec"/>
  <path d="m15.706 16.594 0.085523-0.012273c0.002442 0.026808 0.009672 0.048115 0.021684 0.063921 0.012015 0.01552 0.025863 0.02328 0.041542 0.02328 0.017917 0 0.033086-0.010017 0.045507-0.030054 0.012421-0.02032 0.018632-0.050799 0.018633-0.091437-1e-6 -0.038101-0.006212-0.066603-0.018633-0.085512-0.012216-0.019192-0.028201-0.028785-0.047953-0.028785-0.024638 0-0.046731 0.015098-0.066281 0.045296l-0.069637-0.013971 0.043984-0.32299h0.22694v0.11133h-0.16188l-0.01344 0.10541c0.019141-0.013265 0.038689-0.019895 0.058644-0.019895 0.038077 0 0.070351 0.01919 0.096825 0.05757 0.026471 0.03838 0.039705 0.088194 0.039705 0.14943 0 0.051083-0.01069 0.09666-0.032071 0.13673-0.029118 0.05475-0.069538 0.082126-0.12126 0.082126-0.041336 0-0.075037-0.015381-0.1011-0.046142-0.026065-0.030763-0.041641-0.072108-0.046731-0.12404m0.51527 0.15959v-0.12488h-0.18326v-0.10414l0.19426-0.39411h0.072082v0.39369h0.05559v0.10456h-0.05559v0.12488h-0.083079m0-0.22944v-0.21208l-0.10293 0.21208h0.10293m0.19029 0.25907 0.098045 0.016507c0.001629 0.015805 0.005396 0.026669 0.011302 0.032597 0.008143 0.008467 0.020973 0.0127 0.038483 0.0127 0.022399 0 0.039198-0.004656 0.050399-0.01397 0.007532-0.006208 0.013234-0.016228 0.017103-0.030055 0.002648-0.00988 0.00397-0.02808 0.003972-0.054609v-0.065612c-0.025658 0.04854-0.058034 0.072807-0.09713 0.072807-0.043575 0-0.078089-0.025537-0.10354-0.076618-0.019955-0.040358-0.029934-0.09059-0.029934-0.1507 0-0.075349 0.013032-0.13292 0.039097-0.17271 0.026266-0.039791 0.058846-0.059688 0.097737-0.059688 0.040116 0 0.073204 0.024413 0.09927 0.073236v-0.063076h0.080327v0.40342c0 0.053057-0.003155 0.092707-0.009468 0.11895-0.006312 0.026248-0.01517 0.046849-0.026571 0.061806-0.011404 0.014959-0.026677 0.02667-0.045817 0.035135-0.018936 0.008468-0.042964 0.0127-0.072081 0.0127-0.054979 0-0.093973-0.013123-0.11698-0.039369-0.02301-0.025963-0.034516-0.058982-0.034516-0.099057 0-0.003949 1.02e-4 -0.008748 3.06e-4 -0.014391m0.076665-0.26373c0 0.047693 0.006616 0.082691 0.019852 0.10498 0.01344 0.022013 0.029935 0.03302 0.049481 0.03302 0.020974 0 0.038689-0.011289 0.053146-0.033866 0.014457-0.022858 0.021687-0.056584 0.021687-0.10117 0-0.046565-0.006925-0.081136-0.02077-0.10371-0.013847-0.022574-0.031358-0.033863-0.052536-0.033864-0.020565 1e-6 -0.037568 0.011146-0.051008 0.03344-0.013236 0.022016-0.019852 0.055739-0.019852 0.10118"/>
  <path transform="translate(-284.68 3.6024)" d="m29 31.5z" style="fill-rule:evenodd;fill:#d3d3d3;stroke:#bababa"/>
  <path transform="translate(-336.78 -3.155)" d="m29 31.5z" style="fill-rule:evenodd;fill:#d3d3d3;stroke:#bababa"/>
  <path transform="translate(-347.46 -55.002)" d="m29 31.5z" style="fill-rule:evenodd;fill:#d3d3d3;stroke:#bababa"/>
  <path transform="translate(-402 -67.023)" d="m29 31.5z" style="fill-rule:evenodd;fill:#d3d3d3;stroke:#bababa"/>
  <path transform="translate(-291.14 62.602)" d="m29 31.5z" style="fill-rule:evenodd;fill:#d3d3d3;stroke:#bababa"/>
 </g>
</svg>
