<?xml version="1.0" encoding="UTF-8"?>
<svg width="14" height="14" version="1.0" xmlns="http://www.w3.org/2000/svg" xmlns:cc="http://creativecommons.org/ns#" xmlns:dc="http://purl.org/dc/elements/1.1/" xmlns:rdf="http://www.w3.org/1999/02/22-rdf-syntax-ns#" xmlns:xlink="http://www.w3.org/1999/xlink">
 <defs>
  <linearGradient id="linearGradient4452" x1="8.159" x2="26.293" y1="33.293" y2="33.055" gradientTransform="matrix(.30234 0 0 .31259 -.24714 -.76389)" gradientUnits="userSpaceOnUse">
   <stop style="stop-color:#6996d0" offset="0"/>
   <stop style="stop-color:#3465a4" offset="1"/>
  </linearGradient>
  <filter id="filter4504" x="-.041795" y="-.6711" width="1.0836" height="2.3422">
   <feGaussianBlur stdDeviation="0.77455975"/>
  </filter>
  <linearGradient id="linearGradient4467" x1="-10.598" x2="26.735" y1="21.876" y2="28.762" gradientTransform="matrix(.30262 0 0 .37643 -.244 -2.5983)" gradientUnits="userSpaceOnUse">
   <stop style="stop-color:#7a7d77" offset="0"/>
   <stop style="stop-color:#3c3d3a" offset="1"/>
  </linearGradient>
 </defs>
 <metadata>
  <rdf:RDF>
   <cc:Work rdf:about="">
    <dc:format>image/svg+xml</dc:format>
    <dc:type rdf:resource="http://purl.org/dc/dcmitype/StillImage"/>
    <cc:license rdf:resource="http://creativecommons.org/licenses/GPL/2.0/"/>
    <dc:title/>
    <dc:date>June 2007</dc:date>
    <dc:creator>
     <cc:Agent>
      <dc:title>F.Bellaiche &lt;frederic.bellaiche@gmail.com&gt;</dc:title>
     </cc:Agent>
    </dc:creator>
    <dc:rights>
     <cc:Agent>
      <dc:title/>
     </cc:Agent>
    </dc:rights>
    <dc:publisher>
     <cc:Agent>
      <dc:title/>
     </cc:Agent>
    </dc:publisher>
    <dc:identifier/>
    <dc:source/>
    <dc:subject>
     <rdf:Bag/>
    </dc:subject>
   </cc:Work>
   <cc:License rdf:about="http://creativecommons.org/licenses/GPL/2.0/">
    <cc:permits rdf:resource="http://web.resource.org/cc/Reproduction"/>
    <cc:permits rdf:resource="http://web.resource.org/cc/Distribution"/>
    <cc:requires rdf:resource="http://web.resource.org/cc/Notice"/>
    <cc:permits rdf:resource="http://web.resource.org/cc/DerivativeWorks"/>
    <cc:requires rdf:resource="http://web.resource.org/cc/ShareAlike"/>
    <cc:requires rdf:resource="http://web.resource.org/cc/SourceCode"/>
   </cc:License>
  </rdf:RDF>
 </metadata>
 <g>
  <path transform="matrix(.29958 0 0 .65334 -.24928 -14.577)" d="m46.457 40.284a22.239 1.385 0 1 1-44.478 0 22.239 1.385 0 1 1 44.478 0z" style="fill-rule:evenodd;filter:url(#filter4504);opacity:.38934"/>
  <rect x="10.435" y="11.201" width="2.1008" height="1.3169" style="fill-rule:evenodd;fill:#3465a4;stroke-linejoin:round;stroke-width:.91013;stroke:#102544"/>
  <rect x="1.4837" y="11.171" width="2.0769" height="1.3471" style="fill-rule:evenodd;fill:#3465a4;stroke-linejoin:round;stroke-width:.90676;stroke:#0f2545"/>
  <g transform="matrix(.55519 0 0 .33002 5.43 -.72168)">
   <path d="m10.46 3.9658v12.585l-0.96043 3.0791v6.3607s-0.008263 1.4914 0.42679 1.4914c0.56218 0.005694 1.4601 0.011387 2.0223 0.017081 0.37605 0.02024 0.49629-0.64464 0.4806-1.5198l0.003726-6.269-0.96043-3.1799v-12.526c-0.28916-0.62767-0.73802-0.6256-1.0126-0.039571z" style="fill-rule:evenodd;stroke-linejoin:round;stroke-width:1px;stroke:#000"/>
  </g>
  <g transform="matrix(.53858 0 0 .32939 -3.4009 -.72052)">
   <path d="m10.46 3.9658v12.953l-0.96043 3.1392v5.9334s-0.008263 1.4914 0.42679 1.4914c0.56218 0.005694 1.4601 0.011387 2.0223 0.017081 0.37605 0.02024 0.49629-0.64464 0.4806-1.5198l0.003726-6.1418-0.96043-3v-12.833c-0.28916-0.62767-0.73802-0.6256-1.0126-0.039571z" style="fill-rule:evenodd;stroke-linejoin:round;stroke-width:1px;stroke:#000"/>
  </g>
  <path transform="translate(-277.86 -33.079)" d="m29 31.5z" style="fill-rule:evenodd;fill:#d3d3d3;stroke:#bababa"/>
  <path d="m7.025 5.483c0.76392 0.01115 0.10808 0.0018609 0.16355 0.0032197 1.4597 0.035756 3.5672 0.2694 5.1763 0.7074l1.1266 1.9395v2.636c0 0.19421-0.13183 0.35056-0.29558 0.35056 0 0-3.08 0.3527-6.175 0.34217-3.095-0.010536-6.205-0.3843-6.205-0.3843-0.16375 0-0.29558-0.15635-0.29558-0.35056v-2.5939l1.1695-1.8799c1.7018-0.5268 4.5713-0.78135 5.3353-0.7702z" style="fill:url(#linearGradient4467);stroke-linecap:round;stroke-width:.99432;stroke:#2e3436"/>
  <path d="m6.9834 7.467c0.4696 4.914e-4 2.5311-0.028926 3.5674 0.038266 0.090391 0.0058618 0.61971 0.61697 0.71142 0.62342 1.2589 0.088521 1.8083 0.20073 1.9463 0.26944l0.30081 0.37355v2.1887c0 0.16126-0.17162 0.21193-0.33564 0.21193 0 0-3.0851 0.35857-6.1853 0.34983-3.1001-0.008748-6.1757-0.30567-6.1757-0.30567-0.16402 0-0.29607-0.12982-0.29607-0.29108v-2.2396l0.33646-0.39569c0.18975-0.045616 0.69974-0.055793 2.0238-0.14294 0.10006-0.0065857 0.53699-0.61938 0.63466-0.62525 0.90357-0.054298 3.0492-0.055362 3.4719-0.05492z" style="fill:url(#linearGradient4452);stroke-linecap:round;stroke-width:.99092;stroke:#18396a"/>
  <path transform="translate(-329.95 -39.836)" d="m29 31.5z" style="fill-rule:evenodd;fill:#d3d3d3;stroke:#bababa"/>
  <path transform="translate(-340.64 -91.684)" d="m29 31.5z" style="fill-rule:evenodd;fill:#d3d3d3;stroke:#bababa"/>
  <path transform="translate(-395.17 -103.7)" d="m29 31.5z" style="fill-rule:evenodd;fill:#d3d3d3;stroke:#bababa"/>
  <path transform="translate(-284.32 25.921)" d="m29 31.5z" style="fill-rule:evenodd;fill:#d3d3d3;stroke:#bababa"/>
  <path d="m1.9558 9.015h10.063l2.73e-4 1.0229s-2.9661 0.020042-5.5215 0.020042c-2.5557 0-4.5612-0.018871-4.5612-0.018871l0.019786-1.0241z" style="fill-rule:evenodd;fill:#2e3436"/>
  <path d="m6.0404 9.028h5.9681l0.01995 1.0051s-1.7435 0.050904-3.4765 0.044625c-1.733-0.006279-2.5417-0.03596-2.5417-0.03596l0.030143-1.0137z" style="fill-rule:evenodd;fill:#555753;opacity:.63115"/>
  <rect x="9.2235" y="9.2188" width="1.5762" height=".58137" style="fill-rule:evenodd;fill:#fff;opacity:.70903;stroke-linejoin:round;stroke-width:.37776px;stroke:#fff"/>
  <path transform="translate(-284.68 3.6024)" d="m29 31.5z" style="fill-rule:evenodd;fill:#d3d3d3;stroke:#bababa"/>
  <path transform="translate(-336.78 -3.155)" d="m29 31.5z" style="fill-rule:evenodd;fill:#d3d3d3;stroke:#bababa"/>
  <path transform="translate(-347.46 -55.002)" d="m29 31.5z" style="fill-rule:evenodd;fill:#d3d3d3;stroke:#bababa"/>
  <path transform="translate(-402 -67.023)" d="m29 31.5z" style="fill-rule:evenodd;fill:#d3d3d3;stroke:#bababa"/>
  <path transform="translate(-291.14 62.602)" d="m29 31.5z" style="fill-rule:evenodd;fill:#d3d3d3;stroke:#bababa"/>
  <rect x="4.1413" y="9.1873" width=".72324" height=".7005" style="fill-rule:evenodd;fill:#8ae234;stroke-linejoin:round;stroke-width:.28089px;stroke:#73d216"/>
  <rect x="6" y="9.0168" width="2" height="1.0026" style="fill:#808080;stroke-width:.5"/>
  <rect x="2.0951" y="9.1612" width=".73782" height=".71462" style="fill-rule:evenodd;fill:#8ae234;stroke-linejoin:round;stroke-width:.28655px;stroke:#73d216"/>
 </g>
</svg>
