<?xml version="1.0" encoding="UTF-8"?>
<svg width="16" height="16" version="1.0" xmlns="http://www.w3.org/2000/svg" xmlns:cc="http://creativecommons.org/ns#" xmlns:dc="http://purl.org/dc/elements/1.1/" xmlns:rdf="http://www.w3.org/1999/02/22-rdf-syntax-ns#" xmlns:xlink="http://www.w3.org/1999/xlink">
 <defs>
  <linearGradient id="linearGradient4452" x1="8.159" x2="26.293" y1="33.293" y2="33.055" gradientTransform="matrix(.34822 0 0 .36002 -.35486 -1.7121)" gradientUnits="userSpaceOnUse">
   <stop style="stop-color:#6996d0" offset="0"/>
   <stop style="stop-color:#3465a4" offset="1"/>
  </linearGradient>
  <filter id="filter4504" x="-.041795" y="-.6711" width="1.0836" height="2.3422">
   <feGaussianBlur stdDeviation="0.77455975"/>
  </filter>
  <linearGradient id="linearGradient4467" x1="-10.598" x2="26.735" y1="21.876" y2="28.762" gradientTransform="matrix(.34598 0 0 .43378 -.30114 -3.8319)" gradientUnits="userSpaceOnUse">
   <stop style="stop-color:#7a7d77" offset="0"/>
   <stop style="stop-color:#3c3d3a" offset="1"/>
  </linearGradient>
 </defs>
 <metadata>
  <rdf:RDF>
   <cc:Work rdf:about="">
    <dc:format>image/svg+xml</dc:format>
    <dc:type rdf:resource="http://purl.org/dc/dcmitype/StillImage"/>
    <cc:license rdf:resource="http://creativecommons.org/licenses/GPL/2.0/"/>
    <dc:title/>
    <dc:date>June 2007</dc:date>
    <dc:creator>
     <cc:Agent>
      <dc:title>F.Bellaiche &lt;frederic.bellaiche@gmail.com&gt;</dc:title>
     </cc:Agent>
    </dc:creator>
    <dc:rights>
     <cc:Agent>
      <dc:title/>
     </cc:Agent>
    </dc:rights>
    <dc:publisher>
     <cc:Agent>
      <dc:title/>
     </cc:Agent>
    </dc:publisher>
    <dc:identifier/>
    <dc:source/>
    <dc:subject>
     <rdf:Bag/>
    </dc:subject>
   </cc:Work>
   <cc:License rdf:about="http://creativecommons.org/licenses/GPL/2.0/">
    <cc:permits rdf:resource="http://web.resource.org/cc/Reproduction"/>
    <cc:permits rdf:resource="http://web.resource.org/cc/Distribution"/>
    <cc:requires rdf:resource="http://web.resource.org/cc/Notice"/>
    <cc:permits rdf:resource="http://web.resource.org/cc/DerivativeWorks"/>
    <cc:requires rdf:resource="http://web.resource.org/cc/ShareAlike"/>
    <cc:requires rdf:resource="http://web.resource.org/cc/SourceCode"/>
   </cc:License>
  </rdf:RDF>
 </metadata>
 <g>
  <path transform="matrix(.34504 0 0 .75247 -.35733 -17.621)" d="m46.457 40.284a22.239 1.385 0 1 1-44.478 0 22.239 1.385 0 1 1 44.478 0z" style="fill-rule:evenodd;filter:url(#filter4504);opacity:.38934"/>
  <rect x="11.493" y="12.092" width="3.0557" height="1.4236" style="fill-rule:evenodd;fill:#3465a4;stroke-linejoin:round;stroke-width:.9115;stroke:#102544"/>
  <rect x="1.482" y="12.083" width="3.0471" height="1.4546" style="fill-rule:evenodd;fill:#3465a4;stroke-linejoin:round;stroke-width:.92008;stroke:#0f2545"/>
  <g transform="matrix(.52261 0 0 .35612 6.7903 -.98799)">
   <path d="m10.46 3.9658v9.0483l-0.96043 3.0791v9.8979s-0.008263 1.4914 0.42679 1.4914c0.56218 0.005694 1.4601 0.011387 2.0223 0.017081 0.37605 0.02024 0.49629-0.64464 0.4806-1.5198l0.003726-9.9261-0.96043-3v-9.0483c-0.28916-0.62767-0.73802-0.6256-1.0126-0.039571z" style="fill-rule:evenodd;stroke-linejoin:round;stroke-width:1px;stroke:#000"/>
   <path d="m10.468 4.2169c-0.035695-0.58068 0.51939-0.88992 0.5493 0 0.006707 6.8328-0.055962 22.722-0.055962 22.722h-0.69921c-0.46929-0.2081-0.30293-0.4451-0.3164-1.2298-0.035429-2.0642 0-9.6256 0-9.6256l0.55025-2.177s-0.09316-5.5733-0.027981-9.69z" style="fill-rule:evenodd;opacity:.5"/>
  </g>
  <g transform="matrix(.52305 0 0 .35537 -2.2146 -.98639)">
   <path d="m10.46 3.9658v9.0483l-0.96043 3.0791v9.8979s-0.008263 1.4914 0.42679 1.4914c0.56218 0.005694 1.4601 0.011387 2.0223 0.017081 0.37605 0.02024 0.49629-0.64464 0.4806-1.5198l0.003726-9.9261-0.96043-3v-9.0483c-0.28916-0.62767-0.73802-0.6256-1.0126-0.039571z" style="fill-rule:evenodd;stroke-linejoin:round;stroke-width:1px;stroke:#000"/>
   <path d="m10.468 4.2169c-0.035695-0.58068 0.51939-0.88992 0.5493 0 0.006707 6.8328-0.055962 22.722-0.055962 22.722h-0.69921c-0.46929-0.2081-0.30293-0.4451-0.3164-1.2298-0.035429-2.0642 0-9.6256 0-9.6256l0.55025-2.177s-0.09316-5.5733-0.027981-9.69z" style="fill-rule:evenodd;opacity:.5"/>
  </g>
  <path transform="translate(-277.86 -33.079)" d="m29 31.5z" style="fill-rule:evenodd;fill:#d3d3d3;stroke:#bababa"/>
  <path d="m8.0091 5.4807c0.87335 0.012849 0.12356 0.0021443 0.18698 0.0037103 1.6688 0.041204 4.0782 0.31045 5.9178 0.8152l1.288 2.235v3.0376c0 0.2238-0.15071 0.40398-0.33792 0.40398 0 0-3.5212 0.49765-7.0596 0.48551-3.5384-0.01214-7.0939-0.53406-7.0939-0.53406-0.18721 0-0.33792-0.18017-0.33792-0.40397v-2.9891l1.337-2.1663c1.9455-0.60707 5.2262-0.90042 6.0995-0.88757z" style="fill:url(#linearGradient4467);stroke-linecap:round;stroke-width:1.1132;stroke:#2e3436"/>
  <path d="m7.95 7.4943c0.54085 5.66e-4 3.257-0.033315 4.4505 0.044073 0.1041 0.0067511 0.39471 0.98404 0.50034 0.99147 1.4499 0.10195 2.0827 0.23118 2.2417 0.31033l0.34645 0.43023v2.5208c0 0.18572-0.15208 0.33524-0.34099 0.33524 0 0-3.5532 0.41298-7.1238 0.40291-3.5705-0.010075-7.1584-0.4432-7.1584-0.4432-0.18891 0-0.34099-0.14952-0.34099-0.33524v-2.5795l0.13685-0.47851c0.21854-0.052538 1.0566-0.041471 2.5816-0.14184 0.11524-0.007585 0.27665-0.96403 0.38914-0.97079 1.0407-0.062536 3.8309-0.08655 4.3177-0.08604z" style="fill:url(#linearGradient4452);stroke-linecap:round;stroke-width:.99798;stroke:#18396a"/>
  <path transform="translate(-329.95 -39.836)" d="m29 31.5z" style="fill-rule:evenodd;fill:#d3d3d3;stroke:#bababa"/>
  <path transform="translate(-340.64 -91.684)" d="m29 31.5z" style="fill-rule:evenodd;fill:#d3d3d3;stroke:#bababa"/>
  <path transform="translate(-395.17 -103.7)" d="m29 31.5z" style="fill-rule:evenodd;fill:#d3d3d3;stroke:#bababa"/>
  <path transform="translate(-284.32 25.921)" d="m29 31.5z" style="fill-rule:evenodd;fill:#d3d3d3;stroke:#bababa"/>
  <path d="m2 10.006h11.976l0.023874 1.0414s-3.4832 0.31168-6.4772 0.25096c-2.994-0.060723-5.5228-0.24961-5.5228-0.24961v-1.0428z" style="fill-rule:evenodd;fill:#2e3436"/>
  <path d="m7.0234 10.021h6.9645l0.023282 1.0198s-2.0346 0.21924-4.0569 0.21188c-2.0224-0.007368-2.8968 0.004237-2.8968 0.004237l-0.034092-1.2359z" style="fill-rule:evenodd;fill:#555753;opacity:.63115"/>
  <rect x="11.161" y="10.212" width="1.6005" height=".56867" style="fill-rule:evenodd;fill:#fff;opacity:.70903;stroke-linejoin:round;stroke-width:.37648px;stroke:#fff"/>
  <path transform="translate(-284.68 3.6024)" d="m29 31.5z" style="fill-rule:evenodd;fill:#d3d3d3;stroke:#bababa"/>
  <path transform="translate(-336.78 -3.155)" d="m29 31.5z" style="fill-rule:evenodd;fill:#d3d3d3;stroke:#bababa"/>
  <path transform="translate(-347.46 -55.002)" d="m29 31.5z" style="fill-rule:evenodd;fill:#d3d3d3;stroke:#bababa"/>
  <path transform="translate(-402 -67.023)" d="m29 31.5z" style="fill-rule:evenodd;fill:#d3d3d3;stroke:#bababa"/>
  <path transform="translate(-291.14 62.602)" d="m29 31.5z" style="fill-rule:evenodd;fill:#d3d3d3;stroke:#bababa"/>
  <rect x="3.2059" y="10.183" width=".66542" height=".66308" style="fill-rule:evenodd;fill:#8ae234;opacity:.53689;stroke-linejoin:round;stroke-width:.26213px;stroke:#73d216"/>
  <rect x="5.1473" y="10.197" width=".66542" height=".66308" style="fill-rule:evenodd;fill:#8ae234;opacity:.53689;stroke-linejoin:round;stroke-width:.26213px;stroke:#73d216"/>
  <rect x="7.0195" y="10.031" width="2.9481" height="1.2231" style="fill:#808080;stroke-width:.5"/>
 </g>
</svg>
